<svg width="1460" height="900" viewBox="0 0 1460 900" fill="none" xmlns="http://www.w3.org/2000/svg">
<path d="M1582.26 879.187C1550.9 879.187 1518.26 873.905 1488.04 859.29C1423.13 827.888 1411.13 803.169 1397.23 774.538C1388.01 755.561 1377.56 734.053 1349.64 707.553C1315.97 675.611 1293.39 650.031 1284.89 621.301C1276.7 593.63 1280.96 563.279 1299.57 516.541C1319.02 467.733 1325.16 459.51 1334.45 447.055C1342.34 436.501 1353.12 422.056 1376.92 375.809C1401.07 328.891 1427.14 299.89 1456.63 287.155C1480.65 276.781 1507.33 276.972 1540.61 287.746C1557.17 293.118 1579.82 309.054 1606.04 327.52C1647.47 356.701 1699.03 393.005 1753.92 407.55C1818.39 424.627 1873.31 408.161 1921.83 357.222C1947.53 330.241 1986.56 327.42 2028.91 349.509C2090.08 381.411 2140.61 458.009 2115.34 516.932C2098.99 555.036 2098.64 596.311 2098.31 632.715C2097.98 670.369 2097.72 700.11 2079.91 713.245C2071.02 719.808 2058.22 721.678 2040.81 718.947C1961.15 706.483 1928.35 714.185 1873.98 726.95C1865.13 729.031 1855.98 731.182 1845.9 733.413C1803.59 742.786 1773.06 779.4 1754.92 808.471C1737.68 836.001 1709.5 856.289 1675.57 865.602C1649.13 872.915 1616.45 879.187 1582.26 879.187ZM1494.38 280.683C1481.03 280.683 1468.79 283.194 1457.18 288.196C1427.98 300.81 1402.11 329.621 1378.09 376.289C1354.25 422.616 1343.43 437.102 1335.53 447.686C1326.28 460.07 1320.17 468.253 1300.78 516.921C1282.26 563.419 1278.01 593.57 1286.13 621.011C1294.57 649.511 1317.04 674.961 1350.58 706.773C1378.65 733.413 1389.15 755.021 1398.41 774.078C1412.22 802.509 1424.15 827.068 1488.66 858.279C1551.43 888.641 1624.74 878.437 1675.18 864.532C1708.81 855.308 1736.73 835.201 1753.79 807.931C1772.06 778.66 1802.82 741.786 1845.58 732.312C1855.66 730.081 1864.8 727.931 1873.66 725.85C1928.18 713.045 1961.09 705.312 2041.03 717.817C2058.05 720.478 2070.5 718.697 2079.09 712.365C2096.43 699.57 2096.69 670.069 2097.02 632.705C2097.34 596.191 2097.7 554.816 2114.13 516.521C2139.18 458.129 2088.98 382.161 2028.25 350.489C1986.5 328.721 1948.07 331.442 1922.81 357.952C1883.13 399.608 1841.65 415.053 1801 415.053C1728.26 415.063 1658.08 365.635 1605.22 328.411C1579.09 310.014 1556.53 294.118 1540.16 288.816C1523.37 283.404 1508.28 280.683 1494.38 280.683Z" fill="white"/>
<path d="M1578.68 851.017C1553.8 851.017 1527.06 847.005 1502.11 835.241C1450.12 810.522 1439.1 790.394 1426.33 767.085C1418.14 752.14 1408.86 735.193 1387.21 714.646C1359.43 688.256 1341.77 664.187 1331.62 638.897C1318.47 606.195 1319.38 571.222 1334.53 525.495C1351.57 474.115 1356.99 464.102 1372.81 443.614C1376.89 438.332 1382.16 433.13 1388.26 427.098C1398.11 417.374 1410.36 405.28 1422.86 387.423C1446.86 353.14 1469.97 332.102 1493.54 323.109C1513.94 315.326 1535.28 315.816 1562.75 324.699C1578.02 329.631 1596.07 343.446 1616.96 359.442C1628.29 368.126 1640.02 377.099 1652.79 385.852C1685.67 408.411 1725.18 423.697 1764.08 428.899C1810.09 435.051 1852.68 426.518 1887.22 404.199C1933.85 374.088 1970.65 388.914 1988.43 400.428C2031.45 428.278 2051.86 489.701 2033.95 537.339C2026.04 558.387 2027.89 571.722 2029.84 585.847C2031.14 595.261 2032.5 604.995 2031.11 617.599C2025.55 668.108 2003.05 695.769 1964.21 699.83C1886.18 707.983 1860.49 712.375 1811.5 725.92C1807.43 727.06 1803.2 728.231 1798.8 729.421C1771.73 736.704 1745.83 758.012 1721.83 792.765C1706.4 815.193 1682.36 831.98 1654.14 840.033C1636.02 845.165 1608.7 851.007 1578.68 851.017ZM1423.81 387.943C1411.27 405.87 1398.98 418.004 1389.1 427.758C1383.02 433.76 1377.77 438.942 1373.74 444.164C1358.01 464.552 1352.6 474.516 1335.61 525.765C1320.52 571.272 1319.62 606.065 1332.67 638.557C1342.77 663.717 1360.36 687.676 1388.03 713.965C1409.79 734.613 1419.1 751.63 1427.32 766.645C1440 789.794 1450.96 809.791 1502.63 834.371C1557.32 860.18 1620.83 848.426 1653.82 839.112C1681.79 831.139 1705.61 814.503 1720.9 792.275C1745.06 757.312 1771.17 735.854 1798.49 728.501C1802.89 727.32 1807.11 726.15 1811.19 725.01C1860.26 711.434 1885.98 707.043 1964.1 698.88C2002.33 694.888 2024.51 667.518 2030.01 617.529C2031.39 605.025 2030.05 595.351 2028.76 585.997C2026.79 571.762 2024.93 558.317 2032.91 537.059C2050.69 489.791 2030.44 428.869 1987.79 401.248C1957.49 381.631 1922.01 382.971 1887.87 405.02C1853.08 427.488 1810.22 436.091 1763.91 429.899C1724.83 424.677 1685.13 409.311 1652.11 386.653C1639.33 377.879 1627.58 368.896 1616.23 360.203C1595.42 344.267 1577.44 330.512 1562.37 325.64C1535.19 316.847 1514.09 316.346 1493.98 324.019C1470.64 332.923 1447.69 353.83 1423.81 387.943Z" fill="white"/>
<path d="M1574.89 823.086C1556.02 823.086 1535.61 820.045 1516.18 811.172C1491.69 799.978 1474.86 787.403 1463.22 771.587C1453.97 759.022 1443.66 746.688 1433.68 734.753C1410.7 707.263 1386.94 678.842 1374.44 645.59C1361.02 609.986 1359.46 574.663 1369.53 534.438C1381 488.581 1387.87 469.564 1405.92 447.335C1413.2 438.382 1424.14 431.289 1435.72 423.777C1446.78 416.604 1458.21 409.191 1468.83 399.017C1517.75 352.21 1548.45 349.869 1584.92 361.633C1598.32 365.955 1613.37 376.389 1630.78 388.463C1639.7 394.656 1648.93 401.048 1658.82 407.25C1700 433.05 1780.29 471.274 1855.39 437.342C1884.43 424.217 1946.43 405.52 1973.17 428.688C1995.56 448.086 1988.63 491.542 1952.56 557.847C1942.99 575.414 1940.81 595.081 1938.7 614.108C1938.09 619.6 1937.46 625.282 1936.66 630.804C1932.74 657.874 1925.23 674.791 1896.84 686.625C1875.52 695.509 1852.31 700.01 1829.85 704.352C1814.01 707.423 1797.61 710.594 1782.03 715.286C1744.16 726.77 1711.89 748.148 1688.75 777.089C1675.18 794.416 1655.28 807.701 1632.73 814.483C1618.99 818.485 1598.12 823.086 1574.89 823.086ZM1469.51 399.588C1458.82 409.821 1446.84 417.594 1436.27 424.447C1424.75 431.92 1413.86 438.982 1406.67 447.826C1388.71 469.934 1381.87 488.891 1370.42 534.628C1360.39 574.703 1361.95 609.876 1375.31 645.34C1387.77 678.462 1411.48 706.833 1434.41 734.273C1444.4 746.218 1454.72 758.562 1463.98 771.147C1475.53 786.843 1492.24 799.327 1516.59 810.452C1559.63 830.119 1607.64 820.926 1632.43 813.703C1654.79 806.98 1674.53 793.805 1687.99 776.619C1711.25 747.538 1743.66 726.06 1781.73 714.516C1797.37 709.814 1813.77 706.633 1829.65 703.562C1852.05 699.23 1875.22 694.748 1896.43 685.895C1924.43 674.221 1931.84 657.494 1935.72 630.714C1936.52 625.202 1937.15 619.53 1937.76 614.038C1939.89 594.951 1942.08 575.203 1951.71 557.507C1987.59 491.552 1994.59 448.416 1972.51 429.299C1946.14 406.46 1884.63 425.067 1855.79 438.102C1834.5 447.726 1812.79 451.577 1791.69 451.577C1737.91 451.577 1687.96 426.548 1658.26 407.941C1648.36 401.738 1639.12 395.326 1630.19 389.134C1612.84 377.099 1597.85 366.695 1584.59 362.424C1548.49 350.769 1518.09 353.11 1469.51 399.588Z" fill="white"/>
<path d="M1573.85 795.466C1558.24 795.466 1542.79 791.995 1527.62 785.042C1505.68 774.988 1473.19 752.29 1443.01 701.271C1423.07 667.568 1408.93 628.794 1405.19 597.532C1402.81 577.594 1401.42 547.263 1408.37 516.041C1415.14 485.67 1428.23 461.341 1447.28 443.744C1461.45 430.679 1477.92 419.975 1496.26 411.942C1529.68 397.327 1566.33 393.335 1599.48 400.688C1625.12 406.38 1648.36 418.555 1670.84 430.329C1691.02 440.893 1711.88 451.817 1734.46 458.059C1745.4 461.091 1757.05 463.111 1768.32 465.072C1791.15 469.044 1814.77 473.145 1833.26 485.8C1852.78 499.155 1865.84 522.294 1870.03 550.954C1874.02 578.535 1870.26 606.845 1859.14 632.845C1851.33 651.032 1836.37 675.211 1809.41 687.095C1797.64 692.287 1784.49 694.668 1771.79 696.979C1761.98 698.76 1751.82 700.59 1742.35 703.722C1717.09 712.045 1697.19 729.131 1677.96 745.637C1662.48 758.932 1646.46 772.677 1627.58 782.031C1609.54 790.984 1591.58 795.466 1573.85 795.466ZM1496.59 412.542C1478.33 420.545 1461.92 431.199 1447.82 444.204C1431.51 459.27 1394.79 504.357 1405.93 597.472C1409.67 628.643 1423.78 667.338 1443.67 700.971C1473.77 751.84 1506.12 774.448 1527.97 784.462C1560.12 799.197 1593.51 798.187 1627.22 781.471C1646.02 772.147 1661.99 758.432 1677.44 745.177C1696.73 728.611 1716.68 711.485 1742.09 703.111C1751.62 699.97 1761.79 698.13 1771.64 696.349C1784.3 694.058 1797.4 691.687 1809.09 686.525C1835.83 674.731 1850.69 650.702 1858.45 632.625C1869.52 606.725 1873.27 578.515 1869.3 551.054C1865.13 522.574 1852.18 499.585 1832.81 486.34C1814.45 473.775 1790.93 469.694 1768.17 465.732C1756.88 463.772 1745.22 461.741 1734.23 458.71C1711.58 452.447 1690.67 441.503 1670.46 430.919C1648.02 419.175 1624.83 407.02 1599.3 401.358C1566.31 394.015 1529.84 397.997 1496.59 412.542Z" fill="white"/>
<path d="M1565.94 766.635C1549.3 766.635 1531.81 760.833 1516.42 750.169C1482.38 726.6 1467.57 687.716 1456.63 649.211C1449.28 623.321 1441.57 592.67 1440.21 561.598C1439.33 541.441 1440.89 511.599 1453.33 483.909C1465.65 456.479 1485.64 437.932 1512.74 428.778C1542.63 418.685 1578.34 419.115 1618.89 430.049C1648.69 438.092 1680.78 451.547 1716.97 471.194C1737.87 482.529 1764.29 498.425 1783.4 520.863C1802.61 543.421 1811.13 569.831 1806.79 593.32C1800.87 625.492 1771.98 650.031 1748.79 664.957C1736.62 672.79 1723.56 679.843 1710.91 686.675C1694.97 695.288 1678.49 704.192 1663.71 714.706L1663.06 715.166C1656.68 719.738 1650.47 724.699 1644.48 729.501C1636.78 735.664 1628.8 742.036 1620.37 747.658C1602.3 759.713 1584.73 766.085 1568.14 766.595C1567.41 766.625 1566.67 766.635 1565.94 766.635ZM1559.67 422.016C1542.82 422.016 1527.22 424.427 1512.94 429.249C1486 438.352 1466.11 456.799 1453.86 484.099C1441.46 511.72 1439.9 541.481 1440.77 561.588C1442.13 592.62 1449.83 623.241 1457.18 649.101C1468.1 687.515 1482.88 726.3 1516.77 749.789C1532.74 760.853 1550.98 766.645 1568.13 766.115C1584.6 765.605 1602.06 759.262 1620.04 747.278C1628.45 741.666 1636.41 735.303 1644.12 729.141C1650.12 724.339 1656.33 719.377 1662.73 714.786L1663.37 714.326C1678.17 703.792 1694.67 694.878 1710.63 686.255C1723.25 679.432 1736.32 672.38 1748.46 664.557C1771.56 649.691 1800.34 625.252 1806.24 593.25C1810.56 569.891 1802.06 543.622 1782.95 521.173C1763.89 498.805 1737.53 482.949 1716.68 471.635C1680.52 452.007 1648.47 438.572 1618.72 430.539C1597.68 424.857 1577.94 422.016 1559.67 422.016Z" fill="white"/>
<path d="M918.115 1134.01H132.092L109.869 784.886L109.959 784.736C110.185 784.386 133.414 748.963 177.714 720.922C203.743 704.446 231.861 693.692 261.267 688.96C298.024 683.048 336.915 686.579 376.868 699.464C456.796 725.244 472.797 755.145 486.924 781.535C503.321 812.166 516.273 836.355 628.938 839.016C725.218 841.287 730.525 884.063 737.233 938.224C745.138 1002.05 754.985 1081.49 914.671 1132.91L918.115 1134.01ZM133.312 1132.87H910.832C753.663 1081.18 743.85 1002.03 735.957 938.344C732.558 910.933 729.622 887.264 715.608 869.768C700.239 850.591 672.696 841.177 628.904 840.147C515.449 837.476 502.35 813.007 485.761 782.015C471.747 755.825 455.859 726.144 376.427 700.524C336.712 687.72 298.058 684.198 261.527 690.071C232.313 694.772 204.375 705.446 178.504 721.822C135.853 748.813 112.839 782.665 111.168 785.156L133.312 1132.87Z" fill="white"/>
<path d="M841.146 1125.53H143.396L123.668 830.063L123.736 829.953C123.928 829.613 143.328 795.92 181.463 768.51C203.867 752.404 228.27 741.58 253.983 736.338C286.122 729.785 320.394 731.996 355.864 742.9C427.853 765.029 447.355 789.768 464.554 811.596C484.496 836.906 501.717 858.754 594.564 869.328C631.434 873.529 654.527 883.723 667.242 901.42C678.727 917.416 680.725 938.244 682.848 960.302C687.986 1013.84 694.378 1080.48 838.221 1124.62L841.146 1125.53ZM144.39 1124.6H834.958C693.305 1080.26 686.925 1013.83 681.798 960.382C677.451 915.085 674.018 879.311 594.428 870.248C501.13 859.614 483.785 837.606 463.696 812.126C446.587 790.418 427.187 765.809 355.525 743.771C320.247 732.927 286.167 730.726 254.22 737.238C228.666 742.45 204.409 753.214 182.129 769.23C145.259 795.74 125.983 828.112 124.741 830.263L144.39 1124.6Z" fill="#E0FFE8"/>
<path d="M764.165 1117.06H154.711L154.689 1116.73L137.479 875.24L137.513 875.16C137.671 874.84 153.255 842.868 185.212 816.098C204.003 800.362 224.679 789.468 246.688 783.726C274.197 776.543 303.862 777.423 334.849 786.347C401.113 805.434 423.404 824.841 444.961 843.608C467.783 863.486 489.341 882.253 560.167 899.669C625.121 915.645 626.804 946.907 628.746 983.1C631.174 1028.35 633.929 1079.63 761.737 1116.38L764.165 1117.06ZM155.468 1116.34H759.095C703.242 1099.99 666.734 1079.31 647.525 1053.13C630.462 1029.87 629.186 1006.1 627.956 983.11C626.025 947.187 624.365 916.165 559.964 900.329C488.934 882.863 467.309 864.036 444.408 844.088C422.918 825.381 400.695 806.034 334.611 786.997C303.783 778.124 274.287 777.243 246.948 784.376C225.063 790.088 204.488 800.922 185.799 816.578C154.711 842.618 139.173 873.579 138.303 875.34L155.468 1116.34Z" fill="#C2FFD1"/>
<path d="M687.151 1108.59H166.015L151.278 920.397L151.301 920.347C151.414 920.047 163.192 889.795 188.984 863.656C204.15 848.3 221.111 837.336 239.416 831.083C262.306 823.26 287.352 822.82 313.856 829.763C384.321 848.23 409.266 863.866 440.862 883.673C461.539 896.638 484.971 911.323 525.781 929.98C548.186 940.214 562.392 952.269 569.212 966.814C575.31 979.819 575.118 993.644 574.926 1007.02C574.429 1042.38 573.91 1078.95 685.287 1108.09L687.151 1108.59ZM166.546 1108.09H683.266C573.345 1078.93 573.865 1042.38 574.362 1007.03C574.554 993.704 574.746 979.919 568.693 967.014C561.917 952.579 547.802 940.614 525.522 930.431C484.677 911.764 461.223 897.058 440.535 884.083C408.984 864.306 384.072 848.69 313.698 830.243C287.319 823.33 262.396 823.771 239.631 831.544C221.416 837.766 204.522 848.68 189.413 863.976C164.152 889.555 152.374 919.096 151.843 920.457L166.546 1108.09Z" fill="#A3FEBA"/>
<path d="M610.08 1100.11H177.33L177.319 1099.98L165.078 965.554L165.089 965.534C165.134 965.384 169.335 950.258 179.103 932.331C188.126 915.775 203.879 893.387 227.683 880.692C247.084 870.348 269.014 867.827 292.852 873.209C296.432 874.019 299.932 874.8 303.343 875.57C348.016 885.614 377.534 892.246 405.02 903.741C432.732 915.325 457.744 931.711 491.339 960.322C507.002 973.647 516.454 986.782 520.248 1000.47C523.557 1012.41 522.134 1023.23 520.881 1032.77C519.142 1045.97 517.64 1057.37 528.277 1068.19C539.92 1080.03 565.508 1090.09 608.837 1099.84L610.08 1100.11ZM177.624 1099.82H607.505C564.876 1090.14 539.603 1080.14 528.029 1068.37C517.301 1057.46 518.814 1045.99 520.564 1032.73C521.818 1023.22 523.241 1012.42 519.943 1000.53C516.16 986.892 506.731 973.807 491.125 960.512C457.552 931.931 432.562 915.555 404.884 903.991C377.421 892.516 347.925 885.884 303.264 875.84C299.853 875.07 296.364 874.29 292.773 873.479C269.014 868.127 247.163 870.628 227.841 880.932C214.742 887.915 195.692 902.53 179.385 932.451C169.798 950.038 165.586 964.914 165.405 965.574L177.624 1099.82Z" fill="#84FEA3"/>
<path d="M470.324 1090.72H192.552L183.925 970.543C183.925 957.538 187.211 945.934 193.693 936.06C204.511 919.574 223.753 908.48 250.889 903.108C283.219 896.705 328.254 903.468 371.346 921.184C415.782 939.461 451.951 966.441 470.607 995.212C481.786 1012.46 493.406 1038.65 485.298 1065.53C480.431 1081.63 470.607 1090.47 470.505 1090.55L470.324 1090.72ZM193.761 1089.58H469.771C471.115 1088.31 479.663 1079.8 484.067 1065.17C492.028 1038.69 480.533 1012.82 469.489 995.782C450.969 967.212 415.002 940.402 370.804 922.225C327.96 904.598 283.231 897.876 251.171 904.218C208.644 912.641 185.223 936.19 185.212 970.523L193.761 1089.58Z" fill="white"/>
<path d="M284.093 174.559C269.537 174.559 257.184 170.738 247.19 163.125C229.156 149.39 222.143 125.561 219.433 107.994C216.519 89.067 217.829 73.1411 217.852 72.8409C217.886 72.2807 219.772 39.3984 234.813 -4.01787C243.678 -29.6075 255.32 -53.7965 269.413 -75.9148C287.018 -103.565 308.53 -128.044 333.329 -148.672C352.627 -164.718 375.122 -177.123 400.203 -185.546C423.781 -193.469 449.822 -197.941 477.601 -198.841C529.129 -200.512 586.37 -189.878 643.137 -168.099C706.646 -143.73 765.401 -107.047 808.56 -64.8007C830.603 -43.2226 847.824 -20.9542 859.749 1.37416C872.318 24.923 878.687 48.0316 878.675 70.0599C878.664 92.4483 873.865 106.133 862.617 115.817C847.576 128.772 820.384 134.294 777.077 133.214C757.643 132.723 746.926 136.475 733.364 141.217C717.114 146.899 696.889 153.971 652.962 156.152C651.765 156.212 650.59 156.242 649.438 156.242C613.777 156.242 595.528 128.552 580.769 106.163C570.944 91.2679 562.464 78.393 551.465 78.0329C543.267 77.7628 533.826 84.6454 522.635 99.0608C478.832 155.522 468.285 155.962 423.894 157.793C398.238 158.853 363.107 160.304 304.567 172.298C297.34 173.819 290.508 174.559 284.093 174.559ZM488.216 -198.501C484.659 -198.501 481.136 -198.441 477.624 -198.331C449.912 -197.43 423.928 -192.969 400.406 -185.066C375.393 -176.663 352.955 -164.288 333.713 -148.292C308.948 -127.704 287.481 -103.275 269.899 -75.6647C255.828 -53.5764 244.209 -29.4174 235.355 -3.86781C220.268 39.6485 218.428 72.5508 218.417 72.881V72.891C218.36 73.5212 213.278 136.645 247.551 162.755C261.802 173.609 280.943 176.67 304.442 171.848C363.039 159.834 398.204 158.383 423.872 157.323C446.287 156.392 459.815 155.842 473.333 148.489C486.296 141.447 499.531 127.982 522.161 98.8107C533.623 84.0352 542.917 77.2826 551.476 77.5627C562.78 77.9328 571.34 90.9077 581.243 105.933C596.398 128.932 615.267 157.553 652.916 155.672C696.742 153.491 716.922 146.439 733.138 140.766C746.768 136.005 757.53 132.243 777.077 132.723C820.237 133.804 847.282 128.322 862.211 115.467C873.334 105.893 878.088 92.3082 878.099 70.0699C878.111 48.1117 871.764 25.0831 859.23 1.59424C847.327 -20.6941 830.14 -42.9225 808.143 -64.4605C765.039 -106.656 706.364 -143.29 642.911 -167.639C590.096 -187.897 536.853 -198.501 488.216 -198.501Z" fill="white"/>
<path d="M252.96 211.453C237.659 211.453 224.876 207.401 214.747 199.308C197.379 185.423 191.19 162.034 189.067 144.858C186.696 125.761 188.525 108.624 189.451 104.553C189.881 102.712 190.423 99.0608 191.111 94.4491C191.62 91.0378 192.195 87.1664 192.884 82.8848C193.347 80.0637 193.788 76.8125 194.296 73.0611C196.95 53.5137 201.399 20.7815 218.089 -16.9827C238.201 -62.5098 271.017 -103.895 315.645 -140.009C348.991 -166.999 391.778 -184.245 442.843 -191.278C489.108 -197.65 540.274 -195.5 594.93 -184.896C696.72 -165.138 798.499 -117.39 860.551 -60.2889C883.621 -39.061 891.12 -12.3309 894.745 5.92592C896.303 13.7689 898.031 21.7519 899.702 29.4648C904.377 51.0528 909.221 73.3812 910.836 95.0293C911.559 103.042 911.412 111.165 910.407 119.158C907.912 136.405 899.307 147.399 882.526 154.812C865.373 162.385 839.491 166.366 798.612 167.707C777.777 168.397 767.072 175.349 755.757 182.722C749.286 186.934 742.601 191.285 733.703 194.667C719.203 200.189 684.343 209.102 645.588 207.472C610.592 206.001 592.107 177.7 577.268 154.962C567.026 139.276 558.184 125.721 546.654 124.75C539.653 124.16 531.963 128.252 523.132 137.265C486.85 174.289 469.99 175.9 429.258 179.791C398.746 182.702 356.952 186.694 284.647 206.681C273.117 209.862 262.547 211.453 252.96 211.453ZM496.787 -194.259C478.2 -194.259 460.233 -193.069 442.945 -190.688C392.027 -183.675 349.353 -166.479 316.108 -139.569C271.559 -103.515 238.799 -62.1996 218.733 -16.7626C202.088 20.9315 197.638 53.6138 194.985 73.1311C194.477 76.8925 194.036 80.1437 193.573 82.9748C192.884 87.2464 192.308 91.1179 191.8 94.5291C191.111 99.1609 190.569 102.812 190.14 104.673C189.214 108.724 187.407 125.761 189.756 144.798C191.868 161.874 198.011 185.113 215.221 198.868C231.493 211.873 254.778 214.304 284.444 206.111C356.817 186.103 398.644 182.112 429.19 179.191C469.73 175.319 486.511 173.719 522.624 136.875C531.613 127.702 539.506 123.54 546.734 124.15C558.613 125.161 567.534 138.826 577.867 154.662C592.626 177.28 610.999 205.421 645.633 206.871C684.264 208.492 719.011 199.619 733.454 194.116C742.274 190.755 748.925 186.424 755.373 182.232C766.778 174.809 777.563 167.797 798.612 167.096C839.389 165.766 865.192 161.804 882.244 154.272C898.799 146.959 907.29 136.105 909.752 119.088C910.746 111.135 910.893 103.052 910.181 95.0693C908.567 73.4512 903.733 51.1429 899.058 29.5748C897.387 21.8519 895.659 13.8689 894.09 6.02596C890.476 -12.1509 883.012 -38.7708 860.077 -59.8688C798.081 -116.89 696.426 -164.568 594.772 -184.305C560.623 -190.938 527.841 -194.259 496.787 -194.259Z" fill="white"/>
<path d="M648.049 258.941C644.741 258.941 641.455 258.881 638.214 258.761C605.375 257.54 587.996 229.34 572.672 204.46C562.148 187.384 553.069 172.648 541.053 170.438C535.61 169.437 529.885 171.088 523.55 175.459C496.572 194.096 477.341 196.207 445.485 199.689C411.122 203.45 359.177 209.132 264.682 241.024C229.844 252.778 202.957 251.818 184.788 238.163C170.503 227.439 161.57 208.432 158.95 183.212C156.816 162.655 159.38 143.527 161.04 136.285C162.417 130.253 164.145 121.139 165.545 112.506C166.099 109.075 166.313 104.403 166.595 98.4906C168.414 59.486 172.659 -31.8583 297.938 -131.386C334.503 -160.436 382.823 -179.104 441.533 -186.846C493.614 -193.719 554.074 -191.638 616.363 -180.834C733.138 -160.577 850.117 -110.788 914.382 -53.9966C933.647 -36.9702 940.908 -11.5907 935.962 21.4117C931.84 48.902 935.939 74.6517 939.903 99.551C940.965 106.224 942.06 113.116 942.986 119.959C944.33 128.852 944.725 137.905 944.149 146.869C942.523 166.226 933.286 178.441 914.213 186.484C896.201 194.086 868.941 198.628 820.135 202.169C795.416 203.96 784.282 214.304 772.504 225.258C765.186 232.051 757.631 239.083 746.531 243.905C731.083 250.608 687.878 258.941 648.049 258.941ZM638.248 258.05C680.414 259.621 729.513 250.498 746.158 243.265C757.123 238.493 764.644 231.521 771.905 224.768C777.608 219.476 783.502 213.994 790.955 209.752C799.312 204.991 808.831 202.28 820.056 201.469C868.76 197.938 895.93 193.416 913.851 185.853C932.89 177.82 941.699 166.156 943.325 146.829C943.901 137.915 943.505 128.912 942.173 120.059C941.247 113.226 940.151 106.334 939.09 99.661C935.115 74.7217 931.016 48.922 935.149 21.3317C940.061 -11.4406 932.879 -36.6201 913.795 -53.4864C849.642 -110.198 732.833 -159.906 616.205 -180.134C553.994 -190.928 493.636 -192.999 441.646 -186.136C383.083 -178.403 334.91 -159.806 298.469 -130.845C173.45 -31.5181 169.204 59.616 167.397 98.5306C167.126 104.463 166.9 109.145 166.336 112.616C164.935 121.269 163.208 130.393 161.819 136.435C160.17 143.638 157.618 162.685 159.741 183.152C161.559 200.609 167.465 224.228 185.296 237.623C203.228 251.098 229.844 252.018 264.388 240.364C358.974 208.442 410.976 202.76 445.372 198.988C477.093 195.517 496.245 193.426 523.042 174.909C529.58 170.398 535.52 168.707 541.2 169.747C553.588 172.018 562.746 186.894 573.361 204.13C588.606 228.829 605.861 256.84 638.248 258.05Z" fill="white"/>
<path d="M648.422 310.68C642.313 310.68 636.407 310.48 630.828 310.05C600.678 307.719 583.931 278.618 569.149 252.959C555.304 228.92 543.357 208.162 523.878 213.694C509.164 217.875 495.229 218.506 477.59 219.316C437.332 221.167 376.488 223.948 244.728 275.367C204.888 290.913 174.67 291.643 154.885 277.528C114.673 248.847 131.86 171.308 132.605 168.017L133.384 164.595C135.304 156.212 137.292 147.549 138.172 142.137C138.601 139.466 138.33 135.234 137.958 129.372C135.598 92.7484 129.342 -4.52805 280.209 -122.742C319.97 -153.894 373.79 -173.992 440.189 -182.485C498.718 -189.968 567.06 -188.037 637.841 -176.893C703.349 -166.579 769.33 -148.802 828.661 -125.483C887.325 -102.425 935.578 -75.5247 968.191 -47.6942C1000.01 -20.534 983.074 23.9426 977.123 36.9275C960.862 72.4108 966.689 101.992 972.866 133.294C973.622 137.135 974.379 140.997 975.102 144.888C977.089 154.652 978.015 164.635 977.857 174.569C976.197 218.756 939.18 226.679 841.636 236.632C812.626 239.594 800.294 254.059 788.358 268.054C780.442 277.338 772.267 286.931 759.325 293.124C742.658 301.107 690.78 310.68 648.422 310.68ZM630.908 309.23C675.016 312.641 739.902 301.487 758.896 292.403C771.657 286.301 779.776 276.777 787.624 267.564C799.673 253.429 812.118 238.823 841.535 235.822C938.503 225.928 975.305 218.085 976.942 174.549C977.1 164.685 976.174 154.742 974.198 145.028C973.476 141.137 972.719 137.275 971.962 133.434C965.763 102.002 959.913 72.3208 976.276 36.6174C982.171 23.7526 998.963 -20.304 967.558 -47.104C935.025 -74.8744 886.862 -101.715 828.3 -124.733C769.037 -148.022 703.123 -165.779 637.683 -176.082C567.003 -187.207 498.752 -189.137 440.325 -181.674C374.106 -173.211 320.444 -153.174 280.819 -122.132C130.29 -4.1779 136.535 92.8085 138.884 129.322C139.268 135.234 139.539 139.496 139.098 142.247C138.217 147.679 136.23 156.362 134.299 164.755L133.52 168.177C132.775 171.448 115.689 248.507 155.472 276.888C174.963 290.793 204.866 290.022 244.367 274.607C376.296 223.127 437.231 220.336 477.556 218.486C495.127 217.675 509.005 217.045 523.607 212.904C543.831 207.151 555.948 228.209 569.985 252.578C584.642 278.058 601.276 306.939 630.908 309.23Z" fill="white"/>
<path d="M648.851 362.69C639.874 362.69 631.28 362.27 623.432 361.339C596.251 358.108 581.367 329.737 566.981 302.297C554.514 278.528 542.747 256.08 524.047 251.858C522.827 251.578 521.574 251.298 520.287 250.998C480.831 241.934 414.781 226.769 224.774 309.71C179.921 329.287 146.371 331.848 125.073 317.313C85.7414 290.473 100.772 214.674 104.182 199.759C105.503 193.976 106.836 188.614 108.01 183.883C109.388 178.351 110.472 173.979 110.822 171.758C111.082 170.177 110.438 166.916 109.557 162.415C106.339 145.958 99.6424 111.726 116.22 64.0777C136.716 5.18561 185.928 -54.7669 262.491 -114.099C305.425 -147.372 364.756 -168.93 438.845 -178.173C503.8 -186.276 580.046 -184.496 659.353 -173.031C806.901 -151.693 952.641 -98.7934 1022.02 -41.3919C1036.24 -29.6275 1041.67 -12.291 1037.73 8.73694C1034.5 25.9934 1025.57 42.6196 1018.28 52.4233C988.687 92.2983 996.49 124.82 1004.76 159.263C1005.59 162.755 1006.44 166.276 1007.25 169.817C1009.42 179.421 1011.63 190.785 1011.6 202.28C1011.63 226.679 1001.8 240.524 977.665 250.087C954.595 259.221 919.023 264.123 863.171 271.105C829.723 275.287 816.635 293.444 803.976 311.01C795.54 322.715 786.823 334.819 772.165 342.362C755.689 350.835 696.743 362.69 648.851 362.69ZM623.579 360.419C673.096 366.311 752.177 351.566 771.634 341.562C786.066 334.139 794.332 322.665 803.084 310.51C815.867 292.773 829.079 274.427 863.013 270.185C918.775 263.212 954.29 258.331 977.236 249.237C1000.93 239.854 1010.58 226.249 1010.55 202.28C1010.58 190.865 1008.38 179.551 1006.22 169.997C1005.41 166.456 1004.58 162.945 1003.74 159.453C995.428 124.82 987.58 92.1082 1017.43 51.9131C1024.64 42.1895 1033.51 25.6933 1036.71 8.57687C1040.65 -12.431 1035.47 -29.0172 1021.32 -40.7216C952.065 -98.0031 806.539 -150.813 659.195 -172.121C580.001 -183.575 503.856 -185.356 439.003 -177.263C365.117 -168.049 305.967 -146.561 263.191 -113.409C186.786 -54.1867 137.675 5.61577 117.236 64.3478C100.727 111.786 107.4 145.868 110.607 162.255C111.545 167.016 112.154 170.168 111.872 171.898C111.511 174.159 110.415 178.541 109.038 184.093C107.863 188.824 106.531 194.176 105.21 199.949C101.822 214.774 86.882 290.082 125.717 316.582C146.676 330.888 179.853 328.297 224.311 308.88C414.668 225.788 480.944 241.004 520.546 250.097C521.822 250.388 523.076 250.678 524.295 250.958C543.47 255.289 555.35 277.928 567.918 301.897C582.214 329.117 596.962 357.248 623.579 360.419Z" fill="white"/>
<path d="M648.648 414.939C637.367 414.939 626.165 414.289 616.035 412.618C590.65 408.427 576.365 379.256 561.244 348.364C550.596 326.616 539.585 304.138 524.194 289.872C511.388 278.008 484.727 264.933 430.455 269.975C372.344 275.387 296.436 300.306 204.832 344.043C154.953 367.862 118.128 372.353 95.3739 357.408C57.3973 332.458 69.006 261.032 75.7589 231.48C78.0851 221.307 80.4113 212.824 81.9471 207.211C82.7602 204.24 83.3474 202.089 83.4716 201.379C83.5619 200.849 82.8618 198.938 81.981 196.527C77.2607 183.583 64.7035 149.19 79.9258 97.2602C99.0891 31.8956 154.546 -36.3199 244.784 -105.476C290.835 -140.929 355.654 -163.978 437.434 -174.002C508.791 -182.745 592.954 -181.124 680.831 -169.32C761.381 -158.506 841.997 -139.779 913.964 -115.16C984.926 -90.8904 1040.9 -63.2 1075.84 -35.0995C1111.96 -6.04858 1079.69 47.8116 1059.43 67.9192C1016.15 110.875 1026.02 146.449 1036.46 184.103C1037.45 187.634 1038.43 191.185 1039.38 194.757C1042.12 205.171 1044.97 217.505 1045.32 229.99C1046.1 255.9 1036.5 270.635 1012.17 280.819C988.483 290.743 950.27 296.195 897.376 303.748L884.672 305.568C846.718 311.01 832.851 332.889 819.435 354.047C810.503 368.142 801.266 382.707 784.971 391.591C774.164 397.483 744.408 404.926 712.631 409.677C697.364 411.958 672.803 414.939 648.648 414.939ZM616.261 411.598C667.698 420.101 762.962 402.375 784.372 390.7C800.407 381.957 809.159 368.152 818.43 353.526C831.981 332.158 845.984 310.06 884.502 304.538L897.206 302.717C1005.29 287.291 1045.72 281.519 1044.17 230.01C1043.82 217.605 1040.98 205.341 1038.26 194.977C1037.31 191.415 1036.33 187.864 1035.36 184.343C1024.83 146.419 1014.9 110.595 1058.59 67.2289C1078.61 47.3615 1110.55 -5.79849 1075.07 -34.3292C1040.73 -61.9496 983.379 -90.3102 913.558 -114.189C841.67 -138.778 761.132 -157.485 680.673 -168.289C592.897 -180.074 508.847 -181.694 437.603 -172.971C356.049 -162.977 291.434 -140.009 245.552 -104.696C155.506 -35.6697 100.162 32.3558 81.0663 97.5203C65.9344 149.16 78.4013 183.342 83.099 196.207C84.2508 199.368 84.7589 200.789 84.6347 201.529C84.5105 202.3 83.9459 204.35 83.099 207.461C81.5632 213.074 79.2369 221.547 76.922 231.691C70.2143 261.052 58.6508 331.988 96.0853 356.577C118.433 371.263 154.84 366.741 204.29 343.132C296.018 299.326 372.073 274.367 430.342 268.945C485.077 263.853 512.054 277.118 525.041 289.152C540.579 303.548 551.634 326.116 562.317 347.944C577.314 378.576 591.486 407.507 616.261 411.598Z" fill="white"/>
<path d="M648.84 467.539C633.979 467.539 620.18 466.449 608.628 463.898C582.203 458.045 565.829 420.321 546.88 376.645C539.868 360.489 532.618 343.783 524.465 327.867C517.046 313.401 503.393 303.267 483.868 297.745C456.36 289.962 418.937 291.793 372.615 303.197C319.766 316.212 256.608 341.512 184.878 378.386C128.721 407.256 88.1015 413.419 64.1389 396.692C37.4323 378.055 36.6983 333.929 40.7974 300.186C45.0095 265.463 55.0372 234.342 56.0761 231.18C47.7197 220.156 34.1462 188.014 41.5314 143.477C46.9744 110.615 62.5467 75.8721 87.8079 40.2087C119.359 -4.32799 166.223 -50.4453 227.078 -96.8427C276.336 -134.387 346.688 -158.886 436.18 -169.67C513.94 -179.044 606.019 -177.593 702.479 -165.498C879.703 -143.27 1055.38 -87.049 1129.68 -28.7872C1140.33 -20.444 1145.75 -9.4399 1145.82 3.92511C1145.96 33.4562 1118.92 68.8094 1100.61 83.4049C1043.52 128.902 1055.55 167.807 1068.28 208.992C1073.14 224.728 1078.17 241.004 1079.07 257.7C1080.54 284.88 1071.39 300.386 1047.51 311.19C1024.34 321.684 986.902 327.486 935.104 335.509C925.957 336.93 916.324 338.421 906.206 340.021C863.713 346.764 849.044 372.363 834.861 397.133C825.002 414.339 815.697 430.585 797.81 440.809C779.561 451.243 706.352 467.539 648.84 467.539ZM445.643 291.883C460.109 291.883 473.005 293.474 484.275 296.665C504.161 302.297 518.073 312.631 525.65 327.406C533.826 343.342 541.076 360.069 548.1 376.245C566.924 419.621 583.174 457.085 608.955 462.797C664.909 475.192 774.288 452.904 797.121 439.859C814.715 429.805 823.952 413.689 833.72 396.622C848.05 371.613 862.866 345.743 905.992 338.911C916.121 337.3 925.754 335.81 934.901 334.389C986.586 326.376 1023.93 320.584 1046.93 310.17C1070.29 299.596 1079.23 284.41 1077.8 257.75C1076.9 241.174 1071.89 224.968 1067.04 209.282C1060.88 189.335 1054.5 168.697 1057.04 147.859C1059.89 124.55 1073.85 103.182 1099.75 82.5446C1117.89 68.0892 1144.67 33.096 1144.55 3.9151C1144.49 -9.10979 1139.2 -19.8338 1128.85 -27.9468C1054.69 -86.0686 879.296 -142.17 702.298 -164.378C605.962 -176.463 513.997 -177.903 436.361 -168.55C347.117 -157.796 276.991 -133.376 227.925 -95.9724C167.194 -49.675 120.443 -3.67775 88.9598 40.7389C63.7889 76.2522 48.2617 110.835 42.8188 143.537C35.4109 188.054 49.0635 220.056 57.307 230.76L57.4764 230.98L57.386 231.24C56.9569 232.531 14.5989 360.659 64.952 395.792C88.4516 412.198 128.585 406.006 184.246 377.385C256.066 340.461 319.337 315.122 372.288 302.087C399.943 295.294 424.47 291.883 445.643 291.883Z" fill="white"/>
<path d="M369.391 118.539C317.92 118.539 267.273 110.676 252.717 66.1595C244.225 40.1898 244.937 22.263 255.111 6.22702C266.099 -11.1095 288.424 -26.3452 327.485 -43.1815C371.909 -62.3187 458.105 -81.0957 505.533 -90.5893C561.419 -101.774 626.588 -112.538 630.721 -110.097C633.16 -108.656 684.71 -74.1131 732.139 -35.3586C794.812 15.8306 820.988 49.9034 809.966 65.8894C799.385 81.2352 786.365 83.0758 768.342 85.6168C758.179 87.0473 746.65 88.6779 732.647 92.9395C731.789 93.1996 730.863 93.4897 729.88 93.7999C712.546 99.1919 676.467 110.416 639.473 92.8695C621.428 84.3063 609.13 72.0717 598.278 61.2777C581.52 44.6014 568.285 31.4365 541.601 36.5084C523.217 39.9997 514.985 52.3843 505.465 66.7197C490.559 89.1681 473.654 114.618 413.183 117.259C399.079 117.889 384.195 118.539 369.391 118.539ZM627.842 -108.316C607.323 -108.316 403.246 -73.2928 328.614 -41.1308C248.37 -6.54778 240.939 21.9229 255.19 65.5293C273.371 121.11 350.815 117.719 413.048 114.998C472.13 112.407 488.651 87.5275 503.229 65.5793C512.647 51.394 521.546 37.9889 541.048 34.2875C569.211 28.9355 583.564 43.2309 600.198 59.7671C610.903 70.4211 623.031 82.4856 640.681 90.8588C676.67 107.935 712.027 96.931 729.011 91.649C730.004 91.3389 730.93 91.0488 731.8 90.7887C746.017 86.4571 757.66 84.8165 767.925 83.366C785.913 80.835 797.793 79.1544 807.753 64.709C814.833 54.4451 807.155 29.0456 730.377 -33.6779C683.05 -72.3425 631.704 -106.755 629.276 -108.186C629.027 -108.276 628.542 -108.316 627.842 -108.316Z" fill="#80BE9D"/>
<path d="M922.169 725.046C921.605 725.046 921.051 724.936 920.521 724.695C919.132 723.885 918.172 722.665 917.822 721.234C916.738 718.233 916.399 714.992 916.828 711.851C917.065 710.14 918.251 706.979 920.396 705.768C921.289 705.258 922.26 705.158 923.276 705.448C924.417 705.908 925.286 706.719 925.715 707.749C927.025 710.18 927.827 712.771 928.098 715.462C928.493 718.003 927.917 720.624 926.483 722.855C925.568 724.085 923.852 725.046 922.169 725.046ZM922.192 705.578C921.627 705.578 921.085 705.728 920.566 706.018C918.624 707.109 917.393 710.11 917.144 711.901C916.715 714.992 917.054 718.203 918.127 721.174C918.465 722.535 919.369 723.705 920.679 724.455C922.61 725.336 925.06 724.235 926.212 722.715C927.601 720.554 928.166 717.993 927.782 715.512V715.502C927.522 712.841 926.732 710.28 925.433 707.869C925.015 706.909 924.213 706.148 923.163 705.728C922.836 705.628 922.508 705.578 922.192 705.578Z" fill="#87D2E5"/>
<path d="M935.133 744.983C931.068 744.983 928.064 742.752 925.139 740.601C924.473 740.111 923.796 739.611 923.118 739.141C918.861 736.21 913.813 735.009 908.935 733.839C903.424 732.528 897.721 731.168 893.125 727.306C888.834 723.705 886.79 719.463 887.027 714.702C887.479 705.948 895.598 697.265 903.063 692.053L903.175 691.973C910.301 686.991 921.085 679.458 929.893 681.239C933.699 682.009 936.793 684.48 939.074 688.602C941.141 692.683 942.801 696.955 944.032 701.287C946.301 708.809 947.758 716.452 948.119 722.805C948.582 730.958 947.329 736.98 944.393 740.691C942.372 743.242 939.56 744.683 936.025 744.953C935.709 744.963 935.415 744.983 935.133 744.983ZM927.138 681.399C919.087 681.399 909.815 687.872 903.469 692.313L903.356 692.393C895.982 697.545 887.953 706.118 887.513 714.722C887.276 719.363 889.274 723.485 893.464 726.996C897.97 730.778 903.605 732.118 909.059 733.419C913.982 734.589 919.075 735.81 923.412 738.791C924.1 739.261 924.789 739.771 925.456 740.261C928.504 742.522 931.655 744.853 935.98 744.513C939.368 744.253 942.067 742.872 943.998 740.431C945.929 737.99 951.609 727.947 943.569 701.377C942.349 697.065 940.689 692.823 938.645 688.762C936.432 684.77 933.462 682.38 929.792 681.639C928.922 681.479 928.041 681.399 927.138 681.399Z" fill="#87D2E5"/>
<path d="M945.127 767.261C944.969 767.261 944.811 767.261 944.641 767.261C936.782 767.141 931.903 762.53 927.183 758.058C925.975 756.908 924.721 755.727 923.434 754.637C915.134 747.574 904.768 745.493 894.751 743.482C885.333 741.592 875.599 739.641 867.412 733.599C856.267 725.376 853.037 710.35 859.756 697.855C865.628 686.921 879.247 678.318 888.247 672.626C889.049 672.116 889.884 671.585 890.742 671.045C904.982 661.962 926.506 648.237 943.738 656.74C956.329 662.962 963.601 676.507 965.352 697.005C965.916 704.318 965.871 711.721 965.205 719.023C964.934 722.194 965.069 726.176 965.216 730.398C965.623 741.792 966.131 755.977 958.407 762.91C955.189 765.801 950.728 767.261 945.127 767.261ZM931.824 654.639C917.562 654.639 902.137 664.473 891.115 671.505C890.257 672.056 889.421 672.586 888.619 673.096C879.665 678.758 866.136 687.301 860.332 698.105C853.748 710.37 856.899 725.116 867.819 733.169C875.882 739.111 885.548 741.052 894.887 742.932C904.994 744.963 915.45 747.064 923.875 754.227C925.173 755.327 926.427 756.517 927.646 757.668C932.491 762.25 937.064 766.581 944.653 766.691C950.378 766.771 954.726 765.411 957.944 762.51C965.465 755.747 964.968 741.702 964.561 730.418C964.414 726.186 964.268 722.184 964.55 718.983C965.216 711.711 965.273 704.328 964.697 697.045C962.958 676.747 955.798 663.352 943.41 657.23C939.718 655.419 935.822 654.639 931.824 654.639Z" fill="#87D2E5"/>
<path d="M958.158 789.66C956.577 789.66 954.906 789.62 953.145 789.53C941.344 788.95 934.535 781.827 927.33 774.294C919.312 765.911 910.211 756.397 892.448 754.357C891.16 754.207 889.884 754.097 888.631 754.026C869.874 753.016 853.161 747.974 841.552 739.851C826.861 729.557 821.373 710.76 828.194 694.144C835.59 676.157 855.182 664.213 872.471 653.669L873.296 653.169C891.262 642.215 924.688 621.817 949.113 629.03C960.214 632.301 968.502 640.964 973.742 654.769C974.453 656.65 975.278 658.531 976.136 660.541C979.196 667.614 983.002 676.417 985.802 692.713C987.18 700.756 987.508 706.859 986.807 711.901C986.209 716.232 985.102 719.634 983.928 723.235C981.805 729.787 979.603 736.57 980.63 749.475C980.822 751.866 981.037 754.157 981.24 756.347C981.387 757.958 981.534 759.509 981.669 761.009C982.573 771.533 982.832 779.966 977.491 784.798C973.878 788.089 967.667 789.66 958.158 789.66ZM938.013 628.229C915.597 628.229 889.037 644.425 873.747 653.749L872.923 654.249C855.736 664.723 836.256 676.607 828.95 694.384C822.242 710.72 827.629 729.187 842.049 739.291C853.522 747.334 870.077 752.306 888.676 753.316C889.941 753.386 891.251 753.496 892.549 753.646C910.617 755.727 919.821 765.341 927.94 773.824C935.031 781.237 941.728 788.239 953.19 788.81C965.329 789.4 972.884 787.969 976.938 784.298C982.042 779.676 981.771 771.403 980.89 761.069C980.766 759.569 980.619 758.018 980.461 756.407C980.258 754.207 980.043 751.916 979.84 749.525C978.801 736.49 981.014 729.647 983.171 723.035C984.334 719.463 985.43 716.082 986.017 711.811C986.706 706.839 986.39 700.796 985.012 692.824C982.223 676.607 978.428 667.844 975.391 660.801C974.521 658.791 973.697 656.9 972.985 655.009C967.825 641.424 959.705 632.921 948.865 629.72C945.409 628.679 941.773 628.229 938.013 628.229Z" fill="#87D2E5"/>
<path d="M970.648 812.108C967.881 812.108 964.866 811.998 961.591 811.778C946.177 810.748 937.448 801.184 928.211 791.06C917.844 779.706 906.1 766.831 882.601 764.29C880.997 764.11 879.315 763.98 877.609 763.9C852.789 762.76 830.791 756.437 815.648 746.083C801.645 736.51 793.752 719.804 795.039 702.497C796.247 686.321 805.236 672.276 824.207 656.95C834.879 648.487 846.352 640.654 858.311 633.671C882.013 619.426 926.156 592.896 958.565 602.83C973.347 607.361 984.255 619.126 990.986 637.803C991.912 640.384 992.996 642.985 994.148 645.746C998.066 655.189 1002.96 666.934 1006.17 688.472C1007.69 698.606 1007.87 706.499 1006.73 713.301C1005.81 718.813 1004.2 723.285 1002.63 727.607C999.613 735.95 996.508 744.583 997.795 761.459C998.055 764.751 998.337 767.892 998.608 770.873C998.777 772.714 998.936 774.504 999.082 776.235C1000.27 790.05 1000.58 800.284 993.831 806.266C989.36 810.238 982.053 812.108 970.648 812.108ZM943.106 601.509C913.531 601.509 878.852 622.347 858.83 634.382C846.905 641.344 835.477 649.147 824.84 657.58C806.083 672.746 797.184 686.611 795.999 702.547C794.734 719.574 802.481 735.99 816.235 745.393C831.22 755.637 853.037 761.899 877.655 763.03C879.382 763.11 881.087 763.25 882.714 763.42C906.597 766.001 918.477 779.016 928.956 790.5C938.058 800.474 946.663 809.897 961.659 810.908C978.101 811.998 987.812 810.378 993.142 805.646C999.602 799.924 999.274 789.87 998.111 776.285C997.964 774.554 997.806 772.774 997.637 770.933C997.366 767.942 997.072 764.801 996.824 761.509C995.514 744.473 998.665 735.76 1001.7 727.336C1003.33 722.845 1004.85 718.603 1005.77 713.161C1006.9 706.439 1006.72 698.616 1005.21 688.562C1002.01 667.114 997.14 655.419 993.233 646.016C992.081 643.255 990.997 640.644 990.06 638.043C983.431 619.636 972.726 608.052 958.249 603.62C953.427 602.169 948.345 601.509 943.106 601.509Z" fill="#87D2E5"/>
<path d="M982.866 834.547C978.993 834.547 974.724 834.366 970.027 833.996C950.976 832.516 940.328 820.511 929.046 807.796C915.721 792.781 901.945 777.255 872.742 774.194C870.766 773.984 868.688 773.834 866.565 773.744C835.748 772.483 808.454 764.86 789.72 752.286C775.356 742.642 766.333 728.337 764.312 712.001C762.008 693.334 769.055 673.416 783.148 658.721C800.764 640.354 823.428 625.898 843.269 614.174C872.833 596.647 927.872 564.025 968.051 576.66C986.48 582.452 999.974 597.308 1008.16 620.826C1009.3 624.118 1010.65 627.419 1012.07 630.93C1016.86 642.735 1022.82 657.44 1026.47 684.23C1028.13 696.455 1028.16 706.148 1026.57 714.712C1025.33 721.404 1023.26 726.796 1021.25 732.008C1017.35 742.142 1013.33 752.616 1014.88 773.454C1015.2 777.735 1015.57 781.767 1015.92 785.658C1016.1 787.649 1016.28 789.59 1016.44 791.47C1017.87 808.227 1018.26 820.631 1010.12 827.754C1004.85 832.346 996.225 834.547 982.866 834.547ZM948.334 574.819C911.69 574.819 868.745 600.279 843.89 615.004C824.117 626.689 801.532 641.094 784.006 659.361C770.105 673.856 763.16 693.484 765.43 711.891C767.418 727.947 776.282 742.012 790.398 751.485C808.951 763.94 836.019 771.493 866.61 772.743C868.756 772.833 870.856 772.993 872.866 773.204C902.532 776.315 917.088 792.711 929.927 807.186C941.05 819.721 951.564 831.565 970.128 833.006C990.703 834.597 1002.8 832.756 1009.35 827.024C1017.14 820.201 1016.74 808.007 1015.33 791.53C1015.17 789.65 1014.99 787.719 1014.81 785.728C1014.46 781.827 1014.09 777.805 1013.77 773.514C1012.2 752.486 1016.27 741.912 1020.2 731.688C1022.19 726.516 1024.24 721.154 1025.47 714.552C1027.04 706.078 1027.01 696.485 1025.36 684.35C1021.73 657.67 1015.8 643.035 1011.02 631.27C1009.6 627.759 1008.25 624.438 1007.1 621.127C999.026 597.928 985.757 583.292 967.689 577.61C961.546 575.67 955.042 574.819 948.334 574.819Z" fill="#87D2E5"/>
<path d="M995.028 857.005C990.071 857.005 984.56 856.745 978.428 856.225C955.753 854.304 943.162 839.849 929.837 824.543C913.734 806.046 895.485 785.088 855.487 783.588C839.362 782.987 808.093 780.086 779.873 767.462C752.907 755.397 736.917 738.171 732.366 716.262C729.825 704.138 730.92 691.573 735.505 679.929C742.947 660.631 759.468 641.724 786.039 622.147C799.477 612.353 813.66 603.11 828.216 594.667C863.629 573.869 929.566 535.154 977.525 550.48C999.59 557.533 1015.68 575.49 1025.34 603.84C1026.69 607.832 1028.3 611.833 1029.99 616.075C1035.65 630.26 1042.69 647.907 1046.76 679.969C1050.54 709.77 1045.12 723.295 1039.88 736.38C1035.11 748.304 1030.17 760.629 1031.98 785.408C1032.36 790.6 1032.79 795.462 1033.22 800.164C1035.31 823.363 1036.81 840.129 1026.43 849.172C1020.36 854.464 1010.4 857.005 995.028 857.005ZM953.54 548.109C909.827 548.109 858.615 578.181 828.928 595.617C814.417 604.04 800.267 613.264 786.863 623.027C760.484 642.465 744.076 661.202 736.725 680.299C732.208 691.753 731.135 704.118 733.63 716.052C738.114 737.59 753.867 754.547 780.449 766.441C808.454 778.966 839.52 781.847 855.533 782.447C896.129 783.968 914.57 805.156 930.842 823.843C943.998 838.948 956.419 853.214 978.541 855.084C1003.28 857.185 1017.77 855.104 1025.52 848.342C1035.47 839.669 1033.98 823.132 1031.92 800.244C1031.5 795.532 1031.06 790.67 1030.68 785.468C1028.85 760.459 1033.84 748.014 1038.65 735.99C1044.08 722.435 1049.22 709.62 1045.46 680.079C1041.41 648.147 1034.39 630.57 1028.76 616.445C1027.07 612.193 1025.46 608.172 1024.08 604.15C1014.55 576.16 998.732 558.463 977.073 551.541C969.643 549.16 961.727 548.109 953.54 548.109Z" fill="#87D2E5"/>
<path d="M1034.63 951.681C1030.15 951.681 1025.67 951.551 1021.23 951.291C1002.82 950.2 985.533 946.869 971.236 941.647C954.919 935.685 942.565 927.432 934.502 917.108C920.544 899.241 903.741 883.195 884.567 869.4C867.018 856.785 846.997 845.711 825.067 836.497C787.643 820.772 744.789 810.158 694.063 804.035C669.31 802.215 645.121 795.152 624.129 783.598C601.995 771.413 584.684 754.807 574.092 735.58C561.218 712.221 558.565 686.741 566.447 661.902C573.708 639.023 589.404 617.495 611.831 599.649C634.134 581.862 661.224 568.757 690.178 561.764C697.101 560.044 704.26 558.303 711.182 556.622C770.535 542.207 831.91 527.291 879.654 493.909C895.272 482.985 900.76 470 906.553 456.245C909.941 448.212 913.441 439.909 919.144 431.676C933.723 410.638 960.384 400.644 984.234 392.931C1017.43 382.187 1044.49 382.907 1074.91 387.299C1087.71 389.14 1100.87 387.219 1112.99 381.747C1124.63 376.485 1134.69 368.042 1141.32 357.988C1168.37 316.973 1152.72 270.635 1137.57 225.828C1131.01 206.411 1124.81 188.074 1122.02 170.338C1120.03 157.633 1120.31 146.689 1122.88 137.805C1126.2 126.331 1133.4 117.888 1144.28 112.706C1156.76 106.764 1172.3 99.371 1181.16 86.7962C1185.08 81.2442 1187.68 75.0418 1190.19 69.0396C1191.36 66.2485 1192.57 63.3574 1193.89 60.5664C1198.37 51.1429 1205.02 42.6597 1211.45 34.7767C1246.15 -7.79924 1304.7 -8.07935 1372.5 -8.40947L1378 -8.43948C1444.45 -8.43948 1821.78 19.1109 1896.76 24.6329L1896.87 24.6429L1896.9 24.743C1900.23 35.1869 1906.57 36.0772 1912.16 36.8675C1916.84 37.5278 1921.26 38.148 1922.83 44.4103L1922.86 44.5704L1922.68 44.5904C1893.14 47.2514 1875.04 90.8878 1865.32 114.327C1863.31 119.178 1861.71 123 1860.45 125.461C1853.02 139.836 1843.86 152.261 1833.25 162.405C1823.29 171.928 1811.75 179.701 1798.96 185.513C1776.19 195.877 1748.36 200.449 1716.26 199.128C1657.21 196.697 1594.25 175.5 1543.67 158.463C1541.2 157.633 1538.75 156.802 1536.34 156.002C1507.27 146.239 1464.15 148.439 1408.19 162.565C1362.87 173.999 1320.86 190.335 1300.67 198.188C1298.45 199.058 1296.47 199.819 1294.78 200.469C1277.14 207.241 1265.51 221.317 1260.19 242.315C1256.73 255.94 1255.95 272.316 1257.79 292.373C1261.13 328.647 1237.6 343.232 1210.35 360.129C1197.81 367.902 1184.84 375.945 1173.03 386.829C1160.06 398.783 1151.58 413.649 1147.11 432.266C1143.11 448.912 1142.59 467.059 1142.09 484.616C1141.91 490.788 1141.73 497.18 1141.4 503.433C1139.23 544.468 1136.37 585.333 1132.88 624.888C1132.28 631.611 1131.58 638.673 1130.84 646.136C1127.59 679.048 1123.9 716.362 1126.91 746.494C1128.01 757.478 1130.2 769.952 1132.52 783.157C1141.23 832.836 1152.09 894.659 1113.72 931.993C1107.04 938.506 1094 944.028 1077.01 947.549C1064.03 950.28 1049.36 951.681 1034.63 951.681ZM1038.09 384.578C1021 384.578 1003.72 386.939 984.336 393.201C960.542 400.904 933.937 410.868 919.415 431.826C913.724 440.039 910.234 448.332 906.847 456.345C901.031 470.13 895.532 483.155 879.846 494.129C832.045 527.552 770.637 542.467 711.261 556.893C704.339 558.573 697.18 560.314 690.257 562.035C661.349 569.017 634.303 582.092 612.046 599.859C589.664 617.665 574.001 639.143 566.763 661.972C558.903 686.741 561.546 712.141 574.385 735.44C584.966 754.627 602.221 771.183 624.309 783.337C645.257 794.862 669.389 801.915 694.108 803.735C744.879 809.857 787.768 820.481 825.213 836.217C847.166 845.441 867.21 856.525 884.77 869.16C903.978 882.975 920.793 899.041 934.773 916.928C942.802 927.201 955.111 935.425 971.372 941.367C985.634 946.579 1002.89 949.9 1021.26 950.99C1040.28 952.111 1060.05 950.8 1076.93 947.299C1093.86 943.788 1106.84 938.296 1113.49 931.823C1151.75 894.589 1140.91 832.836 1132.19 783.217C1129.87 770.003 1127.68 757.528 1126.59 746.534C1123.57 716.372 1127.26 679.048 1130.52 646.126C1131.25 638.653 1131.95 631.601 1132.55 624.878C1136.04 585.323 1138.92 544.458 1141.07 503.433C1141.4 497.18 1141.58 490.798 1141.76 484.626C1142.26 467.059 1142.78 448.892 1146.79 432.226C1151.27 413.549 1159.79 398.633 1172.8 386.649C1184.63 375.745 1197.62 367.692 1210.16 359.909C1237.32 343.072 1260.77 328.527 1257.45 292.413C1255.61 272.326 1256.39 255.93 1259.86 242.275C1265.2 221.187 1276.9 207.041 1294.64 200.239C1296.32 199.589 1298.3 198.828 1300.52 197.958C1320.72 190.105 1362.75 173.759 1408.09 162.315C1464.12 148.169 1507.3 145.968 1536.45 155.752C1538.85 156.562 1541.29 157.383 1543.78 158.213C1594.33 175.239 1657.26 196.427 1716.26 198.858C1748.3 200.179 1776.07 195.607 1798.79 185.273C1811.54 179.471 1823.05 171.718 1832.99 162.225C1843.58 152.101 1852.71 139.696 1860.13 125.351C1861.4 122.9 1862.99 119.078 1865 114.237C1874.73 90.7877 1892.83 47.1714 1922.46 44.3303C1920.91 38.3981 1916.82 37.8279 1912.09 37.1576C1906.42 36.3573 1900 35.457 1896.61 24.923C1821.39 19.381 1444.39 -8.13937 1377.99 -8.13937L1372.49 -8.10936C1304.78 -7.77924 1246.31 -7.49913 1211.7 34.9568C1205.28 42.8298 1198.64 51.2929 1194.17 60.6865C1192.85 63.4675 1191.64 66.3486 1190.47 69.1396C1187.95 75.1519 1185.34 81.3742 1181.41 86.9463C1172.5 99.581 1156.92 106.994 1144.41 112.956C1133.61 118.098 1126.46 126.481 1123.17 137.875C1120.61 146.719 1120.32 157.633 1122.32 170.298C1125.11 188.014 1131.31 206.341 1137.86 225.748C1153.02 270.615 1168.7 317.013 1141.57 358.138C1134.91 368.242 1124.79 376.725 1113.1 382.007C1100.93 387.509 1087.7 389.44 1074.83 387.589C1062.25 385.768 1050.22 384.578 1038.09 384.578Z" fill="white"/>
<path d="M1020.25 985.803C993.991 985.803 968.097 978.471 941.526 963.565C913.272 947.719 887.932 925.631 863.416 904.283C860.717 901.922 858.018 899.581 855.342 897.26C810.725 858.586 772.195 825.183 688.507 811.948L688.202 811.898C658.413 807.186 630.283 802.745 603.622 788.109C575.492 772.673 557.119 745.553 551.879 711.721C547.125 680.979 553.46 646.936 569.281 618.326C573.719 610.293 578.507 601.789 583.95 593.806C604.468 563.715 647.888 550.13 678.75 542.527C692.358 539.176 706.259 535.284 719.708 531.523C735.19 527.191 751.203 522.71 767.046 518.968C772.557 517.668 778.214 516.437 783.691 515.247C806.208 510.355 829.493 505.293 849.447 493.759C860.74 487.226 868.588 478.853 872.766 468.859C876.007 461.107 879.711 454.794 883.291 448.692C886.656 442.96 890.134 437.028 893.284 429.845C903.312 406.996 930.832 393.481 950.661 385.308C994.386 367.271 1019.77 366.441 1035.06 367.381C1038.69 367.602 1042.32 367.892 1046.18 368.202C1070.5 370.132 1098.06 372.323 1116.54 355.467C1130.54 342.682 1136.15 318.913 1136.72 300.926C1137.61 272.866 1130.22 248.637 1121.67 220.576C1117.94 208.292 1114.06 195.587 1110.53 181.452C1106 163.345 1106.78 145.318 1112.71 130.693C1118.39 116.687 1132.52 108.364 1146.17 100.311C1147.18 99.7111 1148.19 99.1208 1149.19 98.5206C1161.9 91.1779 1172.38 81.024 1179.49 69.1596C1181.47 65.7483 1183.38 62.277 1185.22 58.9157C1190.71 48.912 1195.88 39.4685 1203.33 30.4051C1240.26 -14.5218 1297.66 -14.8419 1364.11 -15.202L1369.75 -15.2321C1372.94 -15.2321 1376.24 -15.212 1379.55 -15.162C1456.25 -14.0116 1799.2 10.6777 1902.48 18.2205L1902.71 18.2405L1902.76 18.4306C1905.04 25.5232 1912.88 50.1525 1918.1 69.5097L1918.14 69.6698L1918.01 69.7798C1904.34 81.4242 1895.33 95.4795 1891.94 110.435C1875.6 182.612 1840.51 234.442 1793.11 256.39C1763.9 269.915 1732.35 270.865 1701.87 259.141C1676.07 249.217 1653.66 238.883 1631.98 228.879C1569.04 199.849 1519.32 176.91 1445.85 194.937C1423.58 200.399 1387.49 218.065 1372.51 233.521C1365.44 240.824 1358.06 248.147 1350.93 255.219C1333.53 272.496 1315.53 290.373 1300.25 309.54C1288.87 323.835 1270.28 342.202 1252.29 359.969C1234.07 377.975 1215.23 396.592 1203.77 411.068C1182.42 438.038 1181.45 462.097 1180.41 487.576C1179.75 503.582 1179.09 520.129 1173.72 539.026L1173.55 539.616C1162.27 579.341 1149.49 624.368 1148.34 667.124C1147.61 693.754 1151.23 718.043 1159.08 739.311C1163.64 751.686 1170.92 762.87 1177.97 773.694C1184.23 783.307 1190.71 793.251 1195.27 804.015C1217.27 855.955 1182.1 916.337 1135.99 949.14C1109.67 967.867 1074.37 980.551 1036.57 984.873C1031.1 985.493 1025.67 985.803 1020.25 985.803ZM1027.61 367.712C998.406 367.712 970.175 377.875 950.921 385.818C931.193 393.951 903.82 407.396 893.872 430.045C890.71 437.258 887.22 443.2 883.844 448.952C880.276 455.044 876.583 461.337 873.353 469.05C869.13 479.153 861.191 487.626 849.786 494.219C829.742 505.803 806.412 510.875 783.838 515.777C778.372 516.968 772.715 518.198 767.215 519.498C751.383 523.24 735.382 527.722 719.911 532.053C706.462 535.815 692.55 539.716 678.931 543.067C648.17 550.64 604.909 564.175 584.503 594.096C579.072 602.059 574.295 610.553 569.857 618.576C554.093 647.086 547.78 681.009 552.523 711.651C557.729 745.303 576 772.293 603.96 787.629C630.52 802.204 658.593 806.636 688.315 811.338L688.62 811.388C772.512 824.653 811.109 858.115 855.793 896.85C858.47 899.171 861.169 901.522 863.868 903.873C888.35 925.211 913.667 947.269 941.865 963.085C973.788 980.992 1004.74 987.934 1036.48 984.303C1074.17 979.991 1109.35 967.346 1135.59 948.689C1181.51 916.017 1216.55 855.905 1194.66 804.215C1190.12 793.501 1183.66 783.578 1177.4 773.984C1170.35 763.14 1163.04 751.926 1158.45 739.501C1150.58 718.163 1146.96 693.814 1147.68 667.124L1148 667.134L1147.68 667.124C1148.83 624.298 1161.63 579.241 1172.91 539.486L1173.08 538.896C1178.43 520.059 1179.1 503.542 1179.74 487.567C1180.78 462.007 1181.76 437.868 1203.22 410.758C1214.7 396.252 1233.56 377.625 1251.79 359.599C1269.75 341.842 1288.34 323.485 1299.7 309.22C1315 290.022 1333.01 272.146 1350.43 254.849C1357.55 247.767 1364.93 240.454 1371.99 233.151C1387.05 217.615 1423.3 199.869 1445.64 194.387C1519.36 176.3 1569.17 199.278 1632.25 228.369C1653.91 238.363 1676.31 248.687 1702.1 258.611C1732.39 270.265 1763.75 269.325 1792.79 255.88C1840 234.021 1874.98 182.322 1891.28 110.325C1894.68 95.2994 1903.71 81.1841 1917.39 69.4797C1912.21 50.3325 1904.51 26.0834 1902.16 18.7707C1798.61 11.2079 1456.11 -13.4514 1379.5 -14.5918C1376.2 -14.6418 1372.91 -14.6618 1369.71 -14.6618L1364.08 -14.6318C1297.79 -14.2617 1240.55 -13.9516 1203.82 30.7452C1196.41 39.7586 1191.24 49.1921 1185.76 59.1658C1183.92 62.5271 1182.01 65.9984 1180.03 69.4197C1172.86 81.3742 1162.32 91.598 1149.52 98.9908C1148.53 99.581 1147.51 100.181 1146.5 100.781C1132.92 108.784 1118.89 117.058 1113.28 130.883C1107.39 145.408 1106.63 163.325 1111.13 181.322C1114.66 195.447 1118.52 208.142 1122.27 220.426C1130.83 248.527 1138.23 272.796 1137.34 300.936C1136.76 319.023 1131.1 342.962 1116.98 355.857C1098.29 372.903 1070.56 370.703 1046.11 368.762C1042.25 368.452 1038.62 368.172 1034.99 367.942C1032.53 367.792 1030.06 367.712 1027.61 367.712Z" fill="white"/>
<path d="M984.968 1032.12C956.737 1032.12 928.562 1021.35 903.188 1000.8C878.175 980.541 858.379 955.712 839.239 931.693C816.371 903.012 792.725 873.351 760.079 851.403C738.544 837.028 714.57 826.183 688.801 819.161C679.563 816.65 670.123 814.589 660.999 812.598C640.175 808.047 618.641 803.335 598.98 793.131C568.66 777.395 548.74 751.716 541.366 718.873C530.74 671.546 547.216 612.133 582.358 571.048C607.371 541.807 646.601 521.289 698.952 510.095C714.773 506.714 731.136 505.313 746.957 503.963C757.526 503.062 768.458 502.132 779.118 500.611C818.811 494.979 852.948 471.29 870.451 437.228C888.429 402.315 920.623 375.555 961.118 361.899C981.354 355.167 1002.56 351.606 1024.18 351.335C1031.27 351.215 1038.93 352.066 1046.35 352.876C1063.07 354.717 1080.34 356.617 1094.43 348.414C1132.74 326.056 1125.62 276.868 1115.14 236.522C1114.03 232.271 1112.74 227.709 1111.39 222.877C1101.37 187.294 1087.65 138.556 1117.1 111.025C1122.42 106.053 1128.86 102.172 1135.08 98.4206C1140.85 94.9493 1146.81 91.3479 1151.85 86.9063C1160.94 78.8833 1167.91 69.4397 1172.54 58.8357C1176.98 48.6019 1183.51 38.3981 1193.08 26.7537C1210.57 5.47573 1233.65 -7.74922 1265.72 -14.8619C1293.93 -21.1242 1325.2 -21.8145 1360.19 -22.0246L1365.93 -22.0546C1369.1 -22.0646 1372.45 -22.0646 1375.95 -22.0446C1448.03 -21.6444 1830.15 6.06596 1906.03 11.618L1908.65 11.8081L1909.02 12.9685C1911.33 20.1712 1918.37 42.0795 1923.77 61.1766L1923.79 61.2667L1923.77 61.3567C1923.04 65.0981 1921.88 68.7795 1920.29 72.3108C1920.15 81.5343 1917.57 89.7873 1915.85 95.2594C1915.46 96.5199 1915.11 97.6403 1914.83 98.5906C1912.75 106.123 1910.62 114.146 1908.37 122.63C1890.35 190.725 1865.66 283.98 1805.95 314.342C1783.76 325.626 1758 327.396 1729.39 319.604C1702.56 312.301 1680.79 298.185 1659.75 284.53C1649.83 278.108 1639.59 271.455 1628.92 265.593C1595.09 246.966 1549.9 225.008 1500.42 220.546C1437.23 214.854 1393.2 260.221 1354.36 300.236C1349.23 305.518 1344.37 310.52 1339.45 315.452C1296.67 358.258 1268 397.023 1246.48 441.129C1244.22 445.771 1241.93 450.403 1239.65 455.054C1216.19 502.652 1191.95 551.871 1191.02 605.261L1190.54 605.251L1191.02 605.261C1190.25 649.237 1202.42 689.152 1227.16 723.905C1232.58 731.518 1240.72 736.96 1249.35 742.732C1262.92 751.816 1276.97 761.199 1279.17 779.626C1282.42 806.686 1267.86 828.114 1249.4 855.244C1236.58 874.111 1222.04 895.49 1210.09 923.52C1196.33 955.852 1160.72 983.512 1104.28 1005.74C1063.96 1021.62 1025.43 1030.46 989.778 1032.01C988.175 1032.09 986.571 1032.12 984.968 1032.12ZM1025.58 352.186C1025.11 352.186 1024.65 352.186 1024.19 352.196C1002.69 352.476 981.58 356.007 961.457 362.71C921.211 376.285 889.208 402.875 871.332 437.588C853.693 471.901 819.285 495.78 779.276 501.462C768.582 502.982 757.639 503.913 747.058 504.813C731.271 506.164 714.943 507.554 699.19 510.925C647.052 522.079 608.014 542.487 583.137 571.568C548.153 612.473 531.745 671.606 542.326 718.713C549.644 751.315 569.405 776.795 599.477 792.401C619.013 802.545 639.52 807.026 661.236 811.778C670.371 813.779 679.823 815.84 689.083 818.361C714.954 825.413 739.041 836.307 760.654 850.743C793.414 872.761 817.105 902.482 840.018 931.213C859.136 955.192 878.898 979.981 903.832 1000.18C930.459 1021.74 960.158 1032.46 989.733 1031.17C1025.27 1029.63 1063.68 1020.82 1103.9 1004.98C1160.09 982.852 1195.52 955.352 1209.19 923.24C1221.16 895.129 1235.73 873.721 1248.57 854.824C1266.92 827.834 1281.41 806.516 1278.2 779.736C1276.03 761.679 1262.16 752.406 1248.75 743.432C1240.44 737.87 1231.83 732.118 1226.32 724.385C1201.48 689.492 1189.26 649.407 1190.03 605.271C1190.96 551.701 1215.26 502.402 1238.74 454.734C1241.04 450.092 1243.32 445.451 1245.58 440.819C1267.13 396.622 1295.86 357.788 1338.7 314.912C1343.63 309.98 1348.47 304.988 1353.61 299.706C1392.61 259.531 1436.82 213.984 1500.51 219.726C1550.19 224.198 1595.49 246.216 1629.43 264.893C1640.12 270.775 1650.39 277.428 1660.31 283.87C1681.29 297.475 1702.99 311.551 1729.67 318.813C1758.03 326.536 1783.53 324.785 1805.47 313.631C1864.81 283.45 1889.45 190.405 1907.43 122.47C1909.67 113.976 1911.8 105.953 1913.89 98.4206C1914.16 97.4602 1914.51 96.3298 1914.9 95.0593C1916.61 89.6173 1919.18 81.3942 1919.31 72.2508L1919.34 72.1007C1920.91 68.6394 1922.06 65.0181 1922.77 61.3367C1917.4 42.2795 1910.37 20.4313 1908.06 13.2486L1907.87 12.6584L1905.91 12.5184C1830.05 6.9663 1447.95 -20.7441 1375.9 -21.1442C1372.4 -21.1643 1369.06 -21.1643 1365.9 -21.1542L1360.16 -21.1242C1325.22 -20.9042 1294.02 -20.2239 1265.91 -13.9816C1234.08 -6.91891 1211.17 6.20601 1193.82 27.3039C1184.31 38.8883 1177.82 49.0221 1173.39 59.1859C1168.71 69.8999 1161.67 79.4435 1152.49 87.5565C1147.39 92.0582 1141.39 95.6696 1135.59 99.1709C1129.4 102.902 1123.01 106.754 1117.77 111.656C1088.69 138.846 1102.33 187.314 1112.29 222.707C1113.66 227.539 1114.93 232.111 1116.04 236.372C1126.6 276.998 1133.73 326.536 1094.92 349.175C1080.55 357.558 1063.09 355.637 1046.21 353.776C1039.01 352.936 1032.17 352.186 1025.58 352.186Z" fill="white"/>
<path d="M972.399 1081.92C967.51 1081.92 963.207 1081.62 959.605 1081.02C887.175 1068.84 838.098 1047.95 809.573 1017.14C784.425 989.965 778.192 959.143 772.173 929.342C763.986 888.847 756.25 850.603 699.574 830.345C690.596 827.204 681.156 825.213 671.534 824.433C659.463 823.393 635.399 820.331 609.81 811.598C579.162 801.134 555.064 785.718 538.204 765.781C511.419 734.119 503.491 691.653 514.637 639.544C526.223 585.383 545.409 549.73 575.029 527.322C600.516 508.044 633.964 497.83 686.892 493.159C693.272 492.598 699.382 492.088 705.231 491.588C783.093 485.056 815.333 482.345 851.175 414.389C865.313 387.579 878.073 372.794 895.204 363.35C911.883 354.167 932.108 350.325 963.456 345.093C975.256 343.122 986.154 341.432 996.689 339.791C1047.34 331.928 1080.8 326.726 1094.64 308.269C1103.6 296.335 1104.51 279.068 1097.62 252.288L1097.32 251.088C1078.07 176.29 1064.17 122.26 1118.94 85.8759C1154.41 62.3171 1155.77 54.8743 1160.27 30.225C1161.24 24.893 1162.35 18.8407 1163.98 11.6581C1175.48 -39.191 1253.82 -34.9995 1322.93 -31.2981C1340.68 -30.3477 1357.44 -29.4474 1372.33 -29.5274C1444.13 -29.8875 1909.52 4.40533 1914.2 4.75546L1915.08 4.81548L1915.33 5.56577C1915.4 5.77584 1922.49 27.0638 1928.86 48.5919C1941.92 92.7685 1939.36 94.8392 1938.13 95.8396C1937.71 96.1697 1937.2 96.3298 1936.66 96.2898C1935.22 98.9108 1933.62 113.716 1931.81 130.743C1924.26 201.269 1908.56 348.014 1841.5 374.044C1808.19 386.979 1782.53 387.949 1752.96 377.405C1724.45 367.241 1690.41 345.443 1635.42 302.177C1572.79 252.879 1519.27 246.846 1485.42 250.458C1450.41 254.199 1419.22 270.605 1399.83 295.465C1366.03 338.841 1327.1 400.884 1284.12 479.894L1279.8 487.817C1259.7 524.661 1240.72 559.454 1233.66 593.446C1225.79 631.411 1233.94 663.152 1259.32 693.324C1266.32 701.647 1276.95 707.609 1288.19 713.911C1307.37 724.666 1327.2 735.78 1329.6 759.759C1332.45 788.089 1321.3 806.056 1305.85 830.915C1292.91 851.763 1276.8 877.713 1262.22 919.439C1253.14 945.428 1234.21 970.208 1205.97 993.096C1181.82 1012.66 1151.71 1030.28 1116.47 1045.46C1086.83 1058.22 1054.08 1068.8 1024.27 1075.25C1004.06 1079.63 985.962 1081.92 972.399 1081.92ZM1267.13 -30.998C1217.87 -30.998 1174.59 -23.5552 1166.52 12.1382C1164.9 19.2809 1163.8 25.3032 1162.82 30.6252C1158.31 55.3044 1156.79 63.6175 1120.49 87.7366C1067.06 123.23 1080.81 176.66 1099.83 250.618L1100.14 251.818C1107.2 279.258 1106.17 297.075 1096.8 309.57C1082.34 328.837 1048.44 334.109 997.141 342.072C986.605 343.713 975.719 345.403 963.941 347.364C901.844 357.738 880.885 363.49 853.512 415.379C817.038 484.525 784.38 487.256 705.48 493.879C699.63 494.369 693.532 494.879 687.152 495.44C595.231 503.543 540.915 528.972 517.166 639.974C506.156 691.423 513.926 733.289 540.26 764.42C552.986 779.466 591.268 815.199 671.772 822.162C681.63 822.952 691.307 824.993 700.522 828.224H700.533C758.531 848.952 766.391 887.807 774.702 928.932C780.665 958.453 786.842 988.975 811.561 1015.68C839.679 1046.07 888.259 1066.69 960.079 1078.77C963.523 1079.35 967.657 1079.64 972.399 1079.64C1003.26 1079.64 1059.63 1067.4 1115.35 1043.41C1218.67 998.918 1250.18 946.219 1259.77 918.758C1274.43 876.813 1290.61 850.753 1303.61 829.815C1319.39 804.385 1329.83 787.589 1327.04 759.959C1324.74 737.11 1305.46 726.296 1286.82 715.842C1275.36 709.42 1264.54 703.348 1257.25 694.684C1231.41 663.963 1223.11 631.671 1231.12 593.026C1238.24 558.723 1257.3 523.79 1277.48 486.816L1281.79 478.893C1324.83 399.774 1363.83 337.63 1397.71 294.174C1417.51 268.775 1449.37 252.018 1485.1 248.197C1519.49 244.525 1573.78 250.608 1637.13 300.476C1691.88 343.563 1725.71 365.241 1753.92 375.294C1782.78 385.588 1807.85 384.628 1840.46 371.963C1906.13 346.474 1921.73 200.629 1929.23 130.533C1932.27 102.102 1933.21 95.3295 1935.4 94.149C1935.74 93.9689 1936.11 93.8889 1936.48 93.9289C1938.41 88.837 1926.07 45.9309 1913.11 6.96629C1890.16 5.27565 1442.55 -27.6267 1372.34 -27.2465C1357.37 -27.1665 1340.57 -28.0669 1322.77 -29.0172C1304.41 -29.9776 1285.36 -30.998 1267.13 -30.998Z" fill="#80BE9D"/>
<path d="M67.9518 788.867C65.6142 788.867 63.1412 788.086 60.6004 786.516C41.4032 774.671 18.4795 718.48 7.27738 655.807C-6.29616 579.868 -0.717681 512.073 22.5787 469.817C24.7581 465.865 26.3955 464.175 28.0668 464.155C30.0994 464.085 31.5336 466.486 33.6566 470.067C37.5299 476.579 43.3794 486.433 57.5966 488.874C80.2154 492.766 116.283 476.289 164.818 439.896C224.815 394.909 284.575 359.616 337.616 337.847C394.134 314.649 440.016 308.326 470.291 319.561C495.88 329.044 510.289 350.662 513.123 383.815C516.917 428.271 526.132 453.331 532.862 471.638C545.069 504.84 549.18 516.024 498.161 579.708C487.715 592.753 484.508 614.721 481.674 634.109C479.178 651.215 477.021 665.99 470.584 672.363C453.883 688.889 412.383 679.155 364.322 667.881C315.415 656.407 259.98 643.412 218.413 655.336C156.756 673.023 128.174 714.629 105.217 748.051C95.3811 762.367 86.0988 775.882 75.5629 785.655C73.2592 787.796 70.6958 788.867 67.9518 788.867ZM28.112 465.295H28.1007C27.0392 465.305 25.5825 466.996 23.7418 470.317C0.558366 512.373 -4.97494 579.918 8.55343 655.627C19.7104 718.02 42.3969 773.891 61.3344 785.575C66.3257 788.656 70.7975 788.416 74.6369 784.865C85.0711 775.181 94.3197 761.716 104.122 747.461C127.192 713.868 155.909 672.063 218.029 654.246C259.969 642.222 315.584 655.266 364.661 666.781C412.315 677.955 453.465 687.609 469.636 671.603C475.813 665.49 478.037 650.175 480.409 633.958C483.255 614.441 486.484 592.323 497.122 579.048C547.768 515.834 543.703 504.78 531.654 471.988C524.901 453.631 515.664 428.481 511.858 383.895C509.069 351.202 494.92 329.914 469.817 320.611C439.88 309.507 394.36 315.829 338.18 338.888C285.23 360.616 225.583 395.849 165.665 440.776L165.248 440.336L165.665 440.776C116.814 477.4 80.3735 493.966 57.3594 490.004C42.5437 487.454 36.5136 477.31 32.5273 470.607C30.8335 467.756 29.3767 465.295 28.112 465.295Z" fill="white"/>
<path d="M105.047 720.501C103.624 720.501 102.122 720.031 100.587 719.08C87.7922 711.187 72.2312 670.622 64.4168 624.745C55.0102 569.544 58.6237 521.526 74.3541 493.006C75.7883 490.415 76.9627 489.244 78.2839 489.094C79.9665 488.904 81.4458 490.425 83.4897 492.535C87.6002 496.767 94.4886 503.86 109.688 502.979C128.197 501.909 154.305 489.364 187.279 465.705C205.584 452.57 225.65 439.345 246.914 426.411C284.484 403.502 320.383 386.366 350.737 376.862C384.039 366.438 410.757 364.878 430.146 372.21C448.586 379.183 460.037 394.179 464.17 416.777C469.489 445.838 476.84 464.105 482.204 477.44C493.429 505.34 497.212 514.744 461.573 562.492C454.142 572.445 451.33 588.371 448.857 602.417C446.599 615.241 444.645 626.326 439.812 631.758C424.307 649.194 383.135 642.462 339.546 635.339C304.619 629.627 268.505 623.725 239.156 628.136C182.897 636.589 148.726 675.324 126.119 700.964C119.953 707.956 114.634 713.988 109.733 718.53C108.333 719.831 106.741 720.501 105.047 720.501ZM74.7833 493.186L75.2124 493.376C59.5723 521.746 55.9813 569.584 65.3654 624.615C73.1571 670.292 88.5262 710.597 101.14 718.38C104.132 720.231 106.73 720.081 109.067 717.91C113.923 713.398 119.242 707.386 125.385 700.413C148.094 674.674 182.4 635.779 239.021 627.276C268.539 622.834 304.732 628.757 339.738 634.479C383.022 641.551 423.912 648.244 439.067 631.217C443.742 625.965 445.763 614.461 447.92 602.277C450.416 588.141 453.239 572.115 460.782 562.011C496.15 514.614 492.412 505.32 481.3 477.72C475.925 464.355 468.551 446.048 463.221 416.907C459.145 394.619 447.886 379.843 429.773 372.991C410.61 365.748 384.129 367.318 351.065 377.662C320.789 387.136 284.958 404.232 247.468 427.111C226.226 440.036 206.182 453.241 187.9 466.366C154.768 490.134 128.479 502.739 109.767 503.83C94.0934 504.74 87.0017 497.447 82.7783 493.096C80.9941 491.265 79.5826 489.814 78.4307 489.944C77.5047 490.054 76.4658 491.175 75.2462 493.386L74.7833 493.186Z" fill="white"/>
<path d="M141.985 652.205C141.42 652.205 140.822 652.015 140.223 651.645C133.854 647.714 125.791 622.744 121.466 593.573C119.05 577.237 114.657 537.002 126.13 516.184C127.847 513.073 129.913 513.783 133.323 514.974C141.951 517.965 159.917 524.197 209.751 491.505C224.262 481.981 239.969 472.548 253.543 464.455C294.512 439.906 350.861 412.816 386.681 423.209C400.096 427.101 409.695 436.024 415.228 449.739C420.366 462.484 425.267 472.238 429.197 480.081C441.517 504.62 445.661 512.893 425.019 545.265C420.683 552.078 418.424 561.441 416.256 570.495C414.268 578.788 412.383 586.621 409.063 591.152C392.147 614.171 339.456 608.739 292.976 603.947C281.3 602.747 270.267 601.606 259.957 600.906C236.977 599.345 212.122 605.998 186.082 620.683C165.27 632.418 149.686 646.063 143.95 651.375C143.362 651.925 142.696 652.205 141.985 652.205ZM126.424 516.304L126.717 516.434C115.312 537.112 119.693 577.217 122.11 593.503C126.345 622.064 134.464 647.403 140.596 651.185C141.68 651.855 142.628 651.785 143.509 650.965C149.257 645.633 164.886 631.958 185.754 620.183C211.908 605.438 236.898 598.745 260.025 600.326C270.346 601.026 281.379 602.167 293.066 603.367C339.366 608.139 391.83 613.551 408.532 590.822C411.784 586.391 413.659 578.608 415.635 570.365C417.814 561.271 420.073 551.858 424.466 544.975C444.95 512.853 440.828 504.65 428.61 480.301C424.669 472.448 419.768 462.684 414.619 449.919C409.153 436.384 399.69 427.571 386.478 423.74C350.906 413.426 294.749 440.436 253.904 464.915C240.331 473.008 224.634 482.442 210.135 491.955C160.019 524.848 141.838 518.535 133.098 515.504C129.608 514.294 128.174 513.793 126.717 516.434L126.424 516.304Z" fill="white"/>
<path d="M177.883 584.33V539.313L177.996 539.283C178.087 539.253 187.098 536.662 201.677 530.85C215.126 525.488 236.186 516.214 260.172 502.479C278.149 492.185 299.085 481.021 318.113 476.219C337.525 471.317 353.278 473.428 366.264 482.682C381.791 493.746 389.504 505.14 389.82 517.505C390.103 528.289 384.727 538.413 379.973 547.356C379.409 548.426 378.844 549.487 378.291 550.537C371.843 562.882 358.326 572.876 341.206 577.967C321.185 583.91 299.176 582.339 280.803 573.646C261.583 564.542 234.685 567.914 215.521 572.335C194.732 577.127 178.279 584.17 178.121 584.24L177.883 584.33ZM178.211 539.523V583.88C180.277 583.009 195.951 576.547 215.431 572.055C234.662 567.624 261.64 564.252 280.95 573.396C299.243 582.049 321.162 583.62 341.093 577.697C358.134 572.635 371.583 562.692 377.986 550.417C378.528 549.367 379.092 548.306 379.668 547.236C384.4 538.333 389.764 528.229 389.482 517.515C389.165 505.24 381.498 493.926 366.038 482.912C353.142 473.728 337.491 471.628 318.181 476.499C299.198 481.291 278.285 492.445 260.33 502.729C236.333 516.474 215.25 525.758 201.79 531.12C188.081 536.582 179.284 539.203 178.211 539.523Z" fill="white"/>
<path d="M1031.27 935.618C995.899 935.618 980.451 925.314 954.896 902.735C949.882 898.314 945.094 893.582 940.024 888.57C915.813 864.661 885.685 834.89 799.749 808.41C766.447 798.146 740.814 795.455 718.206 793.074C671.817 788.192 641.18 784.971 597.366 715.805C586.525 698.699 584.357 681.942 590.918 665.986C611.639 615.658 712.91 581.845 794.283 554.675C825.812 544.151 853.038 535.057 870.451 526.624C912.244 506.387 927.083 480.607 940.182 457.858C950.56 439.842 960.362 422.815 981.772 411.161C1009.97 395.805 1058.31 410.421 1060.36 411.051L1060.53 411.121C1125.2 441.092 1119.2 508.227 1113.4 573.152C1112.1 587.697 1110.75 602.733 1110.27 616.998C1109.29 645.399 1107.54 664.126 1105.98 680.652C1104 701.65 1102.44 718.236 1103.89 744.216C1105.14 766.584 1108.19 782.86 1111.15 798.596C1114.18 814.732 1117.04 829.978 1118.07 851.076C1119.36 877.496 1115.51 896.033 1105.98 909.428C1095.36 924.333 1077.53 932.607 1051.47 934.717C1044.04 935.308 1037.35 935.618 1031.27 935.618ZM1015.1 406.509C1004.1 406.509 992.364 408.07 983.116 413.102C962.315 424.426 952.671 441.172 942.474 458.899C929.206 481.937 914.175 508.047 871.682 528.625C854.122 537.128 826.817 546.252 795.187 556.806C714.31 583.816 613.649 617.418 593.345 666.777C587.056 682.073 589.167 698.189 599.613 714.695C642.784 782.84 671.286 785.841 718.511 790.813C741.254 793.204 767.023 795.915 800.596 806.259C887.164 832.939 917.541 862.94 941.944 887.049C946.991 892.031 951.757 896.743 956.714 901.125C986.041 927.034 1001.79 936.448 1051.23 932.437C1098.85 928.585 1118.07 904.276 1115.5 851.166C1114.48 830.208 1111.64 815.022 1108.61 798.956C1105.64 783.16 1102.57 766.824 1101.31 744.316C1099.86 718.196 1101.43 701.54 1103.4 680.452C1104.95 663.956 1106.71 645.259 1107.68 616.918C1108.18 602.603 1109.52 587.537 1110.82 572.962C1116.56 508.818 1122.48 442.473 1059.41 413.182C1058.28 412.841 1046.34 409.32 1031.46 407.54C1026.54 406.949 1020.91 406.509 1015.1 406.509Z" fill="#80BE9D"/>
<path d="M1028.96 907.347C1020.44 907.347 1012.07 906.457 1004.96 905.706C981.004 903.165 961.333 895.232 946.506 882.128C942.418 878.516 938.477 874.735 934.31 870.733C911.578 848.915 883.291 821.765 802.493 796.876C777.006 789.023 756.058 784.261 737.584 780.069C712.966 774.477 693.51 770.055 677.282 761.032C660.265 751.559 647.041 737.023 634.394 713.874C624.772 696.268 623.383 679.562 630.272 664.226C649.243 621.96 727.24 595.72 789.913 574.642C814.847 566.249 838.403 558.326 854.292 550.633C884.917 535.798 897.801 525.194 910.268 514.94C917.62 508.887 924.576 503.175 934.852 496.763C948.956 487.96 977.097 473.494 1007.01 475.475C1016.08 476.045 1024.79 478.186 1032.89 481.837C1046.32 487.91 1057.91 497.703 1066.42 510.158C1074.51 521.992 1079.37 535.467 1080.49 549.113C1084.39 596.68 1082.11 641.847 1079.7 689.675C1078.88 706.061 1078.02 723.008 1077.45 739.884C1077.18 747.987 1076.69 756.24 1076.21 764.213C1075.18 781.33 1074.13 799.036 1075.17 816.453C1075.53 822.485 1076.53 828.798 1077.59 835.47C1080.6 854.517 1083.72 874.215 1072.39 890.141C1062.47 904.036 1045.42 907.347 1028.96 907.347ZM1001.39 475.545C973.698 475.545 948.222 488.74 935.021 496.973C924.757 503.375 917.812 509.088 910.472 515.13C897.993 525.394 885.086 536.018 854.427 550.863C838.516 558.566 814.949 566.499 790.004 574.892C727.398 595.95 649.469 622.17 630.554 664.316C623.7 679.582 625.089 696.208 634.665 713.734C647.278 736.823 660.479 751.338 677.44 760.772C693.622 769.775 713.057 774.187 737.652 779.779C756.138 783.981 777.096 788.733 802.595 796.595C883.46 821.515 911.781 848.695 934.536 870.533C938.703 874.535 942.644 878.316 946.732 881.927C961.513 894.982 981.117 902.895 1005 905.426C1025.78 907.627 1057.19 910.968 1072.12 889.96C1083.38 874.115 1080.28 854.477 1077.27 835.48C1076.21 828.798 1075.22 822.485 1074.86 816.443C1073.81 799.006 1074.87 781.3 1075.89 764.173C1076.37 756.2 1076.87 747.957 1077.14 739.854C1077.7 722.978 1078.56 706.031 1079.38 689.645C1081.79 641.827 1084.07 596.67 1080.17 549.123C1079.06 535.517 1074.21 522.092 1066.15 510.288C1057.67 497.873 1046.12 488.12 1032.75 482.077C1024.68 478.436 1016.02 476.305 1006.99 475.745C1005.1 475.605 1003.24 475.545 1001.39 475.545Z" fill="#87D2E5"/>
<path d="M991.585 886.259C968.56 886.259 954.377 877.896 936.964 862.51L933.858 859.759C910.754 839.251 884.555 816.013 801.601 790.453C716.569 764.253 682.127 743.856 669.965 712.524C657.678 680.862 665.177 655.312 692.9 634.405C716.986 616.228 753.314 603.913 785.374 593.039C804.763 586.467 823.079 580.254 837.353 573.342C845.856 569.22 854.461 564.778 862.795 560.487C886.509 548.252 911.025 535.608 937.348 528.065C942.237 526.664 947.149 525.454 951.949 524.473C971.575 520.452 1019.59 514.6 1041.67 546.962C1056.19 568.26 1060.36 595.96 1063.11 620.249C1066.39 649.06 1068.81 673.399 1067.88 702.29C1067.41 716.355 1063.51 730.14 1059.71 743.476C1057.12 752.629 1054.43 762.092 1052.89 771.546C1051.45 780.439 1052.6 792.184 1053.81 804.618C1057.01 837.541 1060.66 874.845 1020.77 882.878C1009.47 885.159 999.942 886.259 991.585 886.259ZM982.201 522.433C970.209 522.433 959.323 524.133 952.22 525.594C947.454 526.574 942.576 527.765 937.72 529.165C911.522 536.668 887.062 549.283 863.416 561.487C855.082 565.789 846.466 570.231 837.951 574.362C823.599 581.315 805.248 587.537 785.814 594.13C753.856 604.964 717.641 617.248 693.713 635.295C666.441 655.863 659.067 681.012 671.162 712.174C683.177 743.125 717.416 763.333 802.007 789.403C885.244 815.052 911.544 838.391 934.75 858.979L937.856 861.73C961.717 882.808 978.463 890.251 1020.45 881.797C1059.25 873.984 1055.66 837.201 1052.5 804.748C1051.28 792.244 1050.13 780.439 1051.59 771.416C1053.14 761.902 1055.84 752.409 1058.45 743.225C1062.22 729.95 1066.12 716.225 1066.57 702.28C1067.52 673.459 1065.09 649.16 1061.81 620.389C1059.07 596.22 1054.94 568.67 1040.55 547.582C1026.86 527.485 1002.88 522.433 982.201 522.433Z" fill="#87D2E5"/>
<path d="M1199.44 331.168C1185.51 331.168 1172.61 324.505 1170.82 315.892C1168.88 306.559 1169.08 299.926 1169.29 292.914C1169.71 279.058 1170.2 263.362 1154.5 221.137C1152.82 216.625 1151.2 212.353 1149.67 208.312C1140.29 183.643 1134.11 167.346 1137.86 154.412C1141.62 141.487 1154.99 132.093 1185.58 120.909C1234.29 103.102 1262.2 52.7735 1275.61 28.5944C1280.86 19.1308 1283.26 14.9293 1285.1 14.3791L1285.2 14.3491H1285.31L1841.18 27.1038L1841.33 27.1939C1856.79 35.9972 1857.51 55.2244 1843.21 77.3927C1828.91 99.541 1796.17 128.702 1747.13 144.138C1710.55 155.652 1652.79 163.035 1585.3 132.844C1479.73 85.6258 1350.8 138.956 1281.53 167.607C1277.95 169.087 1274.55 170.488 1271.33 171.808C1213.94 195.307 1224.94 255.339 1230.23 284.18C1231.26 289.792 1232.07 294.224 1232.1 296.955C1232.34 316.712 1221.49 329.447 1203.09 331.018C1201.88 331.118 1200.66 331.168 1199.44 331.168ZM1285.43 15.4995C1283.97 16.1297 1280.63 22.152 1276.78 29.0946C1263.29 53.4037 1235.24 103.993 1186.07 121.959C1126.5 143.738 1132.15 158.623 1150.89 207.942C1152.42 211.983 1154.05 216.255 1155.72 220.767C1171.48 263.182 1171 278.988 1170.58 292.934C1170.37 299.886 1170.17 306.459 1172.08 315.682C1173.88 324.335 1188.6 331.098 1202.98 329.867C1220.64 328.357 1231.05 316.052 1230.83 296.945C1230.79 294.304 1229.99 289.912 1228.97 284.34C1223.64 255.219 1212.54 194.617 1270.81 170.748C1274.03 169.427 1277.43 168.027 1281 166.546C1350.47 137.815 1479.77 84.3253 1585.89 131.803C1652.98 161.814 1710.38 154.482 1746.71 143.037C1795.42 127.712 1827.92 98.7707 1842.1 76.8025C1856.19 54.9743 1855.69 36.8275 1840.79 28.2243L1285.43 15.4995Z" fill="white"/>
<path d="M1257.98 143.898C1250.9 143.898 1231.41 143.237 1229.73 136.065C1227.53 126.601 1247.32 114.497 1272.37 99.1708C1282.34 93.0685 1292.66 86.7562 1302.61 79.9736C1342.23 52.9935 1365.77 48.6919 1395.58 43.2399C1401.18 42.2195 1406.98 41.1591 1413.18 39.8986C1444.19 33.5962 1464.53 35.0568 1474.31 35.7671C1476.96 35.9571 1478.7 36.0872 1479.54 35.9671H1479.6L1761.79 36.8475L1761.88 36.9175C1766.66 40.7689 1766.82 45.8608 1762.33 51.623C1752.56 64.1577 1721.78 78.7632 1687.46 87.1263C1647.27 96.93 1610.83 96.5098 1587.48 85.9959C1554.25 71.0403 1516.23 64.4478 1477.5 66.9387C1447.21 68.8795 1415.56 76.1022 1383.4 88.3868C1362.5 96.3698 1344.7 106.754 1325.85 117.748C1318.88 121.809 1311.69 126.011 1304.36 130.042C1288.09 139.006 1273.66 143.537 1260.25 143.868C1259.87 143.888 1259.07 143.898 1257.98 143.898ZM1458.06 35.667C1447.1 35.667 1432.19 36.6174 1413.33 40.4488C1407.14 41.7093 1401.33 42.7697 1395.73 43.7901C1366 49.2321 1342.51 53.5237 1303.02 80.4138C1293.05 87.2063 1282.73 93.5187 1272.74 99.621C1248.87 114.226 1228.25 126.841 1230.36 135.935C1231.84 142.297 1249.84 143.557 1260.24 143.287C1273.53 142.957 1287.86 138.456 1304.04 129.542C1311.35 125.511 1318.55 121.309 1325.5 117.248C1344.37 106.243 1362.19 95.8496 1383.15 87.8366C1415.38 75.522 1447.11 68.2993 1477.46 66.3485C1516.31 63.8476 1554.46 70.4601 1587.78 85.4657C1610.99 95.9196 1647.26 96.3098 1687.3 86.5461C1721.48 78.213 1752.12 63.7075 1761.81 51.2629C1766.12 45.7208 1766.03 41.049 1761.55 37.3777L1479.64 36.4973C1478.72 36.6174 1476.95 36.4873 1474.29 36.2973C1470.47 36.0572 1465.07 35.667 1458.06 35.667Z" fill="white"/>
<path d="M2075.12 1090.3H2074.94C2072.45 1090.29 1823.05 1089.62 1576.48 1086.49C1431.67 1084.65 1316.15 1082.34 1233.14 1079.62C1127.82 1076.17 1076.27 1072.17 1075.55 1067.43C1075.4 1066.44 1077.23 1065.49 1081.16 1064.52C1091.86 1061.88 1102.57 1059.36 1112.94 1056.93C1152.8 1047.56 1190.45 1038.72 1223.85 1023.66C1261.31 1006.76 1288.15 984.411 1308.32 953.319C1317.29 939.504 1323.49 922.498 1329.5 906.052C1339.75 877.961 1349.43 851.421 1371.33 844.859C1386.24 840.397 1405.57 845.649 1430.43 860.915C1478.97 890.736 1530.94 909.933 1580.71 916.425C1602.7 919.297 1623.51 919.597 1642.53 917.316C1660.7 915.135 1676.33 910.733 1688.99 904.231C1713.99 891.386 1734.97 876.671 1753.13 859.244C1768.95 844.058 1780.52 828.843 1790.72 815.418C1805.71 795.7 1818.65 778.674 1839.74 768.11C1850.88 762.538 1863.66 759.066 1878.82 757.506C1895.33 755.805 1914.66 756.335 1937.91 759.136C1974.79 763.578 2004.55 780.004 2026.34 807.955C2043.78 830.303 2056.19 860.024 2063.25 896.308C2075.18 957.721 2067.5 1017.54 2067.34 1018.79L2075.12 1090.3ZM1382.29 843.588C1378.43 843.588 1374.82 844.098 1371.44 845.109C1349.69 851.621 1340.02 878.091 1329.8 906.112C1323.79 922.568 1317.58 939.594 1308.6 953.439C1288.4 984.591 1261.51 1006.97 1224 1023.9C1190.56 1038.97 1152.9 1047.82 1113.02 1057.19C1102.65 1059.62 1091.94 1062.14 1081.25 1064.78C1076.65 1065.92 1075.79 1066.82 1075.87 1067.38C1076.11 1068.98 1083.88 1071.43 1119.55 1074.02C1145.64 1075.93 1183.87 1077.71 1233.15 1079.32C1316.16 1082.04 1431.67 1084.35 1576.48 1086.19C1820.27 1089.28 2066.83 1089.98 2074.76 1090L2067.02 1018.75V1018.73C2067.1 1018.13 2074.92 958.021 2062.93 896.308C2055.88 860.074 2043.48 830.383 2026.08 808.075C2004.33 780.194 1974.66 763.818 1937.88 759.387C1914.65 756.585 1895.34 756.055 1878.86 757.756C1863.74 759.317 1851 762.778 1839.9 768.33C1818.88 778.864 1805.96 795.86 1791 815.548C1780.79 828.983 1769.21 844.208 1753.37 859.404C1735.19 876.861 1714.18 891.586 1689.15 904.451C1676.46 910.973 1660.78 915.385 1642.57 917.576C1623.52 919.857 1602.68 919.557 1580.65 916.686C1530.84 910.183 1478.83 890.966 1430.24 861.125C1411.14 849.39 1395.32 843.588 1382.29 843.588Z" fill="white"/>
<path d="M2032.18 1081.94H2031.92C2029.74 1081.94 1811.85 1081.48 1596.51 1079.34C1470.02 1078.08 1369.15 1076.5 1296.7 1074.63C1174.12 1071.48 1159.51 1068.27 1159.18 1066.14C1159.08 1065.48 1160.03 1064.94 1162.24 1064.39C1175.44 1056 1196.61 1051.12 1221.12 1045.47C1258.77 1036.81 1305.62 1026.02 1341.37 997.266C1349.57 990.453 1357.26 983.01 1364.2 975.167C1374.45 963.963 1382.14 951.639 1389.57 939.714C1399.47 923.828 1408.84 908.833 1422.33 900.69C1437.3 891.656 1455.9 891.876 1480.84 901.39C1485.55 903.18 1489.81 905.001 1493.89 906.932C1539.88 928.77 1587.48 943.656 1631.52 949.988C1672.63 955.89 1708.35 953.809 1732.12 944.126C1747.79 937.693 1760.39 929.96 1770.67 920.477C1789.62 902.98 1803.37 884.343 1815.5 867.907C1831.19 846.649 1844.74 828.282 1864.92 817.428C1886.97 805.564 1915.09 804.123 1953.43 812.897C2008.39 825.471 2041.07 860.895 2050.58 918.206C2058.12 963.693 2048.57 1009.73 2044.97 1027.06C2044.22 1030.71 2043.62 1033.6 2043.73 1033.98L2043.77 1034.06L2043.74 1034.14L2032.18 1081.94ZM1447.13 894.647C1437.91 894.647 1429.87 896.818 1422.68 901.16C1409.31 909.223 1399.99 924.168 1390.12 939.994C1382.67 951.939 1374.97 964.293 1364.69 975.528C1357.74 983.391 1350.04 990.853 1341.8 997.686C1305.93 1026.54 1259 1037.35 1221.28 1046.03C1196.81 1051.67 1175.67 1056.54 1162.57 1064.89L1162.47 1064.93C1159.78 1065.6 1159.81 1066.05 1159.81 1066.07C1159.92 1066.75 1163.81 1068.52 1197.61 1070.45C1220.35 1071.75 1253.7 1072.96 1296.71 1074.07C1369.17 1075.94 1470.03 1077.52 1596.51 1078.78C1808.48 1080.88 2022.91 1081.36 2031.66 1081.38L2043.09 1034.08C2042.98 1033.51 2043.35 1031.66 2044.32 1026.96C2047.91 1009.65 2057.44 963.683 2049.92 918.296C2040.47 861.235 2007.93 825.971 1953.26 813.457C1915.1 804.724 1887.13 806.144 1865.23 817.928C1845.18 828.723 1831.66 847.029 1816.02 868.227C1803.87 884.694 1790.1 903.351 1771.11 920.877C1760.78 930.411 1748.11 938.184 1732.36 944.646C1708.48 954.38 1672.63 956.47 1631.4 950.558C1587.28 944.226 1539.63 929.31 1493.56 907.442C1489.5 905.511 1485.24 903.711 1480.55 901.92C1467.87 897.068 1456.85 894.647 1447.13 894.647Z" fill="white"/>
<path d="M1989.08 1073.57H1988.9C1987.03 1073.57 1800.48 1073.33 1616.2 1072.23C1242.95 1069.99 1242.41 1066.48 1242.2 1065.15C1242.15 1064.76 1242.52 1064.53 1242.9 1064.39C1241.79 1062 1241.78 1059.95 1242.88 1058.12C1246.61 1051.93 1262.8 1049.58 1285.21 1046.32C1317.23 1041.68 1361.1 1035.32 1396.34 1013.63C1404.17 1008.81 1411.07 1003.69 1417.76 998.736L1420.12 996.986C1430.11 989.593 1438.56 982.25 1446.01 975.758C1473.32 951.999 1491.35 936.313 1544.9 949.548C1548.28 950.378 1552.74 951.519 1557.3 952.939C1628.95 975.207 1724.92 998.676 1775.28 984.011C1790.46 979.539 1801.71 972.787 1809.67 963.373C1820.07 951.068 1829.13 938.044 1837.9 925.449C1869.96 879.402 1897.65 839.627 1968.99 866.657C2015.17 884.153 2039.86 913.694 2042.35 954.44C2044.39 987.632 2031.24 1019.83 2024.18 1037.14C2021.67 1043.32 2019.67 1048.2 2020.11 1049.19L2020.23 1049.47L1989.08 1073.57ZM1243.57 1065.09C1262.34 1070.43 1737.07 1072.41 1988.72 1072.72L2019.11 1049.21C2018.87 1047.74 2020.29 1044.16 2023.27 1036.86C2030.31 1019.61 2043.4 987.512 2041.38 954.5C2038.91 914.105 2014.42 884.824 1968.59 867.457C1898.03 840.717 1870.54 880.192 1838.71 925.909C1829.93 938.514 1820.85 951.559 1810.43 963.893C1802.36 973.457 1790.95 980.299 1775.57 984.831C1724.96 999.567 1628.76 976.068 1556.96 953.759C1552.42 952.349 1547.98 951.208 1544.62 950.378C1491.61 937.273 1473.73 952.829 1446.67 976.378C1439.2 982.87 1430.73 990.233 1420.7 997.646L1418.34 999.397C1411.65 1004.36 1404.73 1009.49 1396.85 1014.34C1361.44 1036.14 1317.46 1042.51 1285.33 1047.17C1263.2 1050.39 1247.21 1052.71 1243.71 1058.52C1242.69 1060.2 1242.78 1062.15 1243.98 1064.47L1244.21 1064.93L1243.67 1065.06C1243.64 1065.07 1243.6 1065.08 1243.57 1065.09Z" fill="white"/>
</svg>
